<?xml version="1.0" encoding="UTF-8"?>
<svg version="1.1" xmlns="http://www.w3.org/2000/svg" width="729" height="743">
<path d="M0 0 C0.95685127 -0.00367669 1.91370254 -0.00735338 2.89954931 -0.01114148 C6.10827533 -0.02216129 9.31696896 -0.02601927 12.52571106 -0.02983093 C14.82546593 -0.03609682 17.12521978 -0.04274373 19.42497253 -0.04974365 C26.97913408 -0.07076985 34.5332958 -0.08114405 42.08747864 -0.09111023 C44.68908003 -0.09515819 47.29068131 -0.09927512 49.89228249 -0.10346031 C60.71406254 -0.12032612 71.53583967 -0.1349612 82.35763073 -0.14220905 C85.16349476 -0.1441188 87.96935878 -0.14603916 90.77522278 -0.147995 C91.82123857 -0.14872061 91.82123857 -0.14872061 92.88838599 -0.14946087 C104.1816182 -0.15775894 115.47474441 -0.18309424 126.76793035 -0.21557567 C138.37336832 -0.24868202 149.97874701 -0.26632846 161.58423215 -0.26985329 C168.09589017 -0.27220335 174.60738052 -0.28115855 181.11899376 -0.30631447 C187.24626449 -0.32960361 193.37325724 -0.3338248 199.50056076 -0.32355309 C201.74589144 -0.32305784 203.99123585 -0.3293748 206.23652458 -0.34310913 C209.3093815 -0.36084983 212.38124311 -0.35371067 215.45410156 -0.34057617 C216.3359354 -0.35154542 217.21776924 -0.36251466 218.12632531 -0.37381631 C225.10951971 -0.30208989 232.05508166 1.17704504 237.49728173 5.80932826 C243.35590439 11.82173925 243.8437436 19.60090885 243.82298279 27.60906982 C243.8287759 28.42469536 243.83456901 29.2403209 243.84053767 30.08066237 C243.85746481 32.80005703 243.86041159 35.51928075 243.86335754 38.23872375 C243.87265984 40.20336277 243.88281905 42.16799789 243.8937645 44.13262844 C243.92111003 49.49029889 243.93621708 54.84794313 243.94917631 60.20566511 C243.96504212 65.90471298 243.99213283 71.60370854 244.01780701 77.30271912 C244.06538541 88.27859267 244.10231051 99.25447593 244.13493264 110.23040318 C244.16121301 119.03892456 244.19092308 127.8474278 244.22309875 136.65592957 C244.23225151 139.16822656 244.24140424 141.68052355 244.25055695 144.19282055 C244.25508597 145.43571012 244.259615 146.67859969 244.26428127 147.95915258 C244.34477265 170.19178163 244.41332062 192.42443164 244.47534466 214.65711915 C244.52018782 230.67783159 244.57484518 246.69846166 244.64198565 262.71909559 C244.6998039 276.5344681 244.74343755 290.34980967 244.77467346 304.16526794 C244.78640947 309.16895395 244.80464533 314.1725507 244.82850647 319.17619324 C244.85531725 324.88918578 244.86803756 330.60202103 244.86870956 336.31507492 C244.871267 338.32567037 244.8788125 340.33626762 244.89209366 342.34682083 C245.03516969 364.94047844 245.03516969 364.94047844 239.10700989 372.08467102 C238.26138489 372.76529602 237.41575989 373.44592102 236.54450989 374.14717102 C235.92706498 374.66056262 235.30962007 375.17395423 234.67346472 375.70290315 C228.51109051 379.88341415 219.74647794 379.44015245 212.5569458 379.41459656 C211.60328394 379.41912767 210.64962209 379.42365878 209.66706139 379.4283272 C206.49912591 379.44090006 203.33136391 379.43935548 200.16340637 379.43769836 C197.88099448 379.44368784 195.5985846 379.45049435 193.31617737 379.45805359 C187.13659936 379.47567277 180.95707678 379.4804071 174.77747607 379.48168516 C170.91423708 379.48310902 167.05101208 379.48738297 163.18777657 379.4926796 C150.39879345 379.51021008 137.60985497 379.51952154 124.82086157 379.51801865 C123.78893443 379.51789878 123.78893443 379.51789878 122.73616028 379.51777649 C121.70296413 379.51765385 121.70296413 379.51765385 120.64889533 379.51752873 C109.47816232 379.51671526 98.30756395 379.53587442 87.1368699 379.56405322 C75.64765896 379.59280551 64.15853108 379.60622637 52.66928154 379.60486567 C46.22648553 379.60435605 39.78384219 379.61004025 33.3410778 379.63122177 C27.28431637 379.65059268 21.22785354 379.6507362 15.17108154 379.63618851 C12.95113247 379.63409829 10.73116474 379.63881394 8.51124763 379.65090942 C5.47551201 379.66637648 2.44080428 379.65704375 -0.59490967 379.64164734 C-1.46846385 379.65193447 -2.34201803 379.66222159 -3.24204355 379.67282045 C-10.73216776 379.58915215 -16.71529776 377.53755158 -22.39299011 372.58467102 C-27.94149834 366.02734311 -27.60540226 360.18619064 -27.6137085 351.97238159 C-27.61864647 350.93691867 -27.62358445 349.90145575 -27.62867206 348.83461517 C-27.64405538 345.35620116 -27.65241205 341.87780566 -27.66081238 338.39936829 C-27.67039479 335.90452921 -27.68040508 333.40969174 -27.69081116 330.91485596 C-27.71511113 324.81802709 -27.7348514 318.72119859 -27.7525639 312.62434829 C-27.77362734 305.44969862 -27.80007002 298.27507164 -27.82673537 291.10044097 C-27.87450432 278.20269958 -27.91767739 265.30494689 -27.95817566 252.40718079 C-27.99691111 240.07285947 -28.03833628 227.73855178 -28.08317566 215.4042511 C-28.08589677 214.65448477 -28.08861787 213.90471843 -28.09142144 213.13223191 C-28.10238104 210.1126716 -28.11335009 207.09311133 -28.12433002 204.0735511 C-28.22712163 175.78707725 -28.31729458 147.50059244 -28.39168739 119.21402931 C-28.42666049 105.96935383 -28.46621531 92.72472927 -28.51849252 79.48010999 C-28.54829586 71.84182288 -28.57165704 64.20353932 -28.58847541 56.56521243 C-28.5977917 52.41936671 -28.61020042 48.27359715 -28.63151741 44.12779427 C-28.65045936 40.43604067 -28.66035422 36.74438547 -28.66253591 33.05258489 C-28.66602779 31.14225269 -28.67940484 29.23194626 -28.69324303 27.321661 C-28.68363149 18.62216515 -28.17307241 12.24520436 -22.10002136 5.65498352 C-15.73884744 -0.17735172 -8.09013953 -0.00167026 0 0 Z M45.54450989 26.14717102 C44.57255676 26.68986633 43.60060364 27.23256165 42.59919739 27.79170227 C14.69310824 44.5109481 -4.23258011 73.03616114 -12.45549011 104.14717102 C-19.6787664 133.95535429 -14.74660762 166.3548168 0.20075989 193.11201477 C18.57967249 222.89420724 46.19608455 244.50320099 80.36921692 252.65840149 C98.63683872 256.76297824 117.16567796 255.96612664 135.44978333 252.53633118 C138.53603773 251.9629641 141.6338314 251.46394129 144.73200989 250.95967102 C146.33632603 250.68972453 147.94056215 250.41929788 149.54450989 250.14717102 C149.77911926 250.92447571 150.01372864 251.7017804 150.25544739 252.50263977 C151.82042305 255.71321105 152.89691125 256.19738297 156.16950989 257.45967102 C156.98677551 257.78580383 157.80404114 258.11193665 158.64607239 258.44795227 C159.27255676 258.67869446 159.89904114 258.90943665 160.54450989 259.14717102 C160.53548645 259.77623352 160.52646301 260.40529602 160.51716614 261.05342102 C160.54681458 261.90935852 160.57646301 262.76529602 160.60700989 263.64717102 C160.61861145 264.48248352 160.63021301 265.31779602 160.64216614 266.17842102 C163.02905107 274.03137576 171.53118774 280.26141532 177.23200989 285.89717102 C178.35059387 287.00898743 178.35059387 287.00898743 179.49177551 288.14326477 C180.87365771 289.51651791 182.25657552 290.88873046 183.64094543 292.25947571 C184.99418321 293.60143216 186.31567274 294.9757367 187.61408997 296.37080383 C189.44773869 298.41921985 189.44773869 298.41921985 192.29450989 298.39717102 C193.03700989 298.31467102 193.77950989 298.23217102 194.54450989 298.14717102 C194.3036646 291.04223508 192.29164269 286.17359461 189.15779114 279.83857727 C186.93620819 275.06828296 185.67405762 269.98946726 184.45759583 264.88349915 C183.20919987 260.08336047 181.76984127 257.76753157 177.54450989 255.14717102 C176.63700989 254.83779602 175.72950989 254.52842102 174.79450989 254.20967102 C174.05200989 253.85904602 173.30950989 253.50842102 172.54450989 253.14717102 C171.56940941 249.59906348 171.29057331 245.99335166 170.98200989 242.33467102 C170.89822083 241.35885071 170.81443176 240.3830304 170.72810364 239.37763977 C170.6675177 238.64158508 170.60693176 237.9055304 170.54450989 237.14717102 C171.25993958 236.89193665 171.97536926 236.63670227 172.71247864 236.37373352 C197.57406813 225.60609338 214.78317958 197.06598881 224.54450989 173.14717102 C229.60410543 159.75581985 230.93899548 146.25816848 230.91950989 132.02217102 C230.91896606 131.3459671 230.91842224 130.66976318 230.91786194 129.97306824 C230.79280358 96.00571803 217.06720911 67.34387308 193.54450989 43.14717102 C192.78911926 42.36599915 192.03372864 41.58482727 191.25544739 40.77998352 C169.7022604 19.96745588 138.31699755 9.66746219 108.85700989 8.83467102 C86.26409205 9.27112512 65.19561845 15.1191693 45.54450989 26.14717102 Z M-17.45549011 14.14717102 C-18.58746658 17.23281247 -18.89035209 19.88860524 -18.45549011 23.14717102 C-16.64214041 26.37728872 -16.64214041 26.37728872 -13.45549011 28.14717102 C-9.30655286 28.65668963 -5.89349403 28.69384059 -2.45549011 26.14717102 C-0.15339521 22.92423816 0.01961643 20.02720778 -0.45549011 16.14717102 C-2.51378186 12.44224587 -3.76705821 11.36389958 -7.83049011 10.08467102 C-12.44976298 10.16431366 -14.18416311 10.87584401 -17.45549011 14.14717102 Z M217.54450989 14.14717102 C216.41253342 17.23281247 216.10964791 19.88860524 216.54450989 23.14717102 C218.35785959 26.37728872 218.35785959 26.37728872 221.54450989 28.14717102 C225.69344714 28.65668963 229.10650597 28.69384059 232.54450989 26.14717102 C234.84660479 22.92423816 235.01961643 20.02720778 234.54450989 16.14717102 C232.48621814 12.44224587 231.23294179 11.36389958 227.16950989 10.08467102 C222.55023702 10.16431366 220.81583689 10.87584401 217.54450989 14.14717102 Z M-17.45549011 209.14717102 C-18.59906916 212.22736384 -18.89001587 214.89112468 -18.45549011 218.14717102 C-16.64214041 221.37728872 -16.64214041 221.37728872 -13.45549011 223.14717102 C-9.30655286 223.65668963 -5.89349403 223.69384059 -2.45549011 221.14717102 C-0.15580448 217.92761114 0.09799627 215.0215757 -0.45549011 211.14717102 C-2.78898212 208.31305948 -2.78898212 208.31305948 -5.45549011 206.14717102 C-5.78549011 205.81717102 -6.11549011 205.48717102 -6.45549011 205.14717102 C-11.24054875 204.46359122 -13.96975687 205.8991014 -17.45549011 209.14717102 Z M216.54450989 210.14717102 C215.70963911 214.07106368 216.39769863 215.83593115 218.10700989 219.45967102 C220.3691734 222.3951388 220.3691734 222.3951388 223.91950989 223.27217102 C228.583062 223.11135888 231.26289861 221.4287823 234.54450989 218.14717102 C235.14931383 212.25595308 235.14931383 212.25595308 232.48200989 207.14717102 C226.05444222 202.77095473 221.27803372 204.83638819 216.54450989 210.14717102 Z M20.38044739 278.90107727 C14.66956648 285.88779328 13.77354686 293.54432843 14.03279114 302.38545227 C15.05266923 309.88272402 18.31165816 316.45164288 23.85700989 321.64717102 C31.87634421 327.68840287 40.65762438 329.91425696 50.54450989 329.14717102 C59.78844005 327.50442439 66.50428984 323.38777287 71.91950989 315.70967102 C77.19119592 307.05722981 77.71567303 297.74700142 76.18513489 287.81513977 C73.6439981 279.38474679 65.80750816 272.16068577 58.30622864 267.97529602 C55.97529598 266.87960262 54.12541881 266.33601801 51.54450989 266.14717102 C50.89997864 266.09689758 50.25544739 266.04662415 49.59138489 265.99482727 C37.62352186 265.47175633 28.52896288 270.39352757 20.38044739 278.90107727 Z M-17.45549011 354.14717102 C-18.59945409 357.22840064 -18.88438256 359.88990672 -18.45549011 363.14717102 C-16.49211341 366.2505729 -15.14179938 367.73662088 -11.51408386 368.61982727 C-7.59305888 368.909998 -5.7820728 368.36489281 -2.45549011 366.14717102 C-0.24702751 362.83447711 0.35115229 360.99738251 0.09919739 357.08467102 C-0.97427091 353.33509161 -3.168521 352.13175614 -6.45549011 350.14717102 C-11.11256597 349.09932895 -14.06352424 350.98647555 -17.45549011 354.14717102 Z M216.54450989 355.14717102 C215.7386226 358.00231457 215.78291035 360.28540307 216.54450989 363.14717102 C218.4410054 366.29375768 218.4410054 366.29375768 221.54450989 368.14717102 C225.69344714 368.65668963 229.10650597 368.69384059 232.54450989 366.14717102 C234.85163374 362.91719763 235.08854342 360.03312484 234.54450989 356.14717102 C232.63118695 352.65118108 232.63118695 352.65118108 229.54450989 350.14717102 C223.60641128 348.9595513 220.42483864 350.60434712 216.54450989 355.14717102 Z " fill="#020202" transform="translate(255.4554901123047,35.85282897949219)"/>
<path d="M0 0 C1.89819336 0.0690918 1.89819336 0.0690918 4 1 C5.38110352 3.51489258 5.38110352 3.51489258 6.62890625 6.89453125 C6.85997574 7.50581375 7.09104523 8.11709625 7.32911682 8.74690247 C8.08804902 10.7636809 8.82497119 12.78780768 9.5625 14.8125 C10.08469942 16.2101189 10.60864487 17.60708658 11.13427734 19.00341797 C12.22003185 21.89000855 13.29914035 24.77896033 14.37451172 27.66943359 C16.87207254 34.35485771 19.50172767 40.98816066 22.125 47.625 C23.02354172 49.90881317 23.92198707 52.19266425 24.8203125 54.4765625 C26.41585198 58.53083084 26.41585198 58.53083084 28.13623047 62.53271484 C29 65 29 65 29 70 C53.75 70 78.5 70 104 70 C102.00466456 74.98833861 99.93375302 77.32823289 96.0625 80.75 C95.48056885 81.27585693 94.8986377 81.80171387 94.29907227 82.34350586 C89.90199294 86.28511561 85.35564156 90.02352596 80.75 93.71875 C77.18684631 96.67454795 73.81614923 99.81252121 70.4296875 102.96704102 C66.46158059 106.63844883 62.32982544 110.0333701 58.05859375 113.34375 C55.9955873 114.93163734 55.9955873 114.93163734 54.34765625 116.71875 C53 118 53 118 51 118 C51 118.66 51 119.32 51 120 C50.01 120.495 50.01 120.495 49 121 C49.61735918 128.49982574 51.23567265 135.50304388 53.125 142.77734375 C53.75523714 145.25454996 54.38544456 147.73176374 55.015625 150.20898438 C55.84222604 153.43252381 56.66998134 156.65575559 57.49975586 159.878479 C58.63284973 164.28025167 59.75515195 168.68468556 60.875 173.08984375 C61.17293457 174.23492905 61.47086914 175.38001434 61.77783203 176.55979919 C63.42285596 183.04135734 64.58054024 189.32161988 65 196 C61.01774039 194.58344304 57.88153063 192.68971278 54.4375 190.25 C53.89158203 189.86585938 53.34566406 189.48171875 52.78320312 189.0859375 C51.54924322 188.2174455 50.3167475 187.34687077 49.08544922 186.47460938 C45.93205103 184.24485931 42.76606436 182.03318116 39.60131836 179.81958008 C37.86339133 178.60392825 36.12592559 177.38761669 34.38891602 176.1706543 C28.55271893 172.08182161 22.71170347 168.00091404 16.828125 163.98046875 C14.93168713 162.65243836 13.06647019 161.27875592 11.234375 159.86328125 C10.37328125 159.20714844 9.5121875 158.55101562 8.625 157.875 C7.89539063 157.29492188 7.16578125 156.71484375 6.4140625 156.1171875 C2.90144216 154.49160592 0.70115892 155.04407154 -3 156 C-5.72248419 157.5752308 -5.72248419 157.5752308 -8.25 159.75 C-13.37129363 163.78206327 -18.60137662 167.53506803 -24 171.1875 C-31.85975847 176.52107776 -39.65605871 181.93811907 -47.4140625 187.41870117 C-58.18384026 195 -58.18384026 195 -62 195 C-61.38175061 187.49282753 -59.7661247 180.47707587 -57.875 173.1953125 C-57.56804199 171.99437958 -57.26108398 170.79344666 -56.94482422 169.55612183 C-55.96890479 165.74426217 -54.9844446 161.93466576 -54 158.125 C-53.33723173 155.5420007 -52.67654403 152.95847361 -52.015625 150.375 C-50.80774891 145.66473611 -49.5994386 140.95459418 -48.3828125 136.24658203 C-48.13934082 135.30332062 -47.89586914 134.3600592 -47.64501953 133.38821411 C-47.15536959 131.57526296 -46.59384754 129.78154261 -46 128 C-45.54595129 123.91356163 -45.33079522 121.84190279 -47.9375 118.5625 C-49.4534375 117.2940625 -49.4534375 117.2940625 -51 116 C-52.39652759 114.72992963 -53.79229176 113.45901957 -55.1875 112.1875 C-58.28777245 109.44926594 -61.44374185 106.81619683 -64.6875 104.25 C-74.00336895 96.87554075 -82.9510408 89.03713172 -91.734375 81.0390625 C-94.63403708 78.42936663 -97.60867432 75.91211613 -100.6015625 73.41015625 C-102 72 -102 72 -102 70 C-76.92 70 -51.84 70 -26 70 C-25.34 67.03 -24.68 64.06 -24 61 C-23.0684452 58.24270407 -22.10854017 55.54535291 -21.05859375 52.8359375 C-20.77469788 52.08867401 -20.490802 51.34141052 -20.19830322 50.57150269 C-19.28417374 48.17027187 -18.36114798 45.77258365 -17.4375 43.375 C-16.80467991 41.71988498 -16.17227675 40.06461049 -15.5402832 38.40917969 C-13.98690366 34.34618417 -12.42540428 30.28637866 -10.85961914 26.22814941 C-10.06475442 24.1678447 -9.27138745 22.10697072 -8.47851562 20.04589844 C-7.21974755 16.77866804 -5.95587382 13.51351171 -4.6875 10.25 C-4.32132568 9.30560059 -3.95515137 8.36120117 -3.57788086 7.38818359 C-3.08106812 6.12095459 -3.08106812 6.12095459 -2.57421875 4.828125 C-2.29151123 4.1052832 -2.00880371 3.38244141 -1.7175293 2.63769531 C-1 1 -1 1 0 0 Z " fill="#010101" transform="translate(363,446)"/>
<path d="M0 0 C2.86349066 0.32835981 4.52803823 0.52224017 6.58984375 2.609375 C13.6894686 13.88646028 22 29.24152812 22 43 C22.99 42.34 23.98 41.68 25 41 C31.11968777 40.45359931 31.11968777 40.45359931 33.8125 42.125 C35.39269525 44.62004513 36.18349681 47.17364281 37 50 C37.4640625 49.5153125 37.928125 49.030625 38.40625 48.53125 C49.65558003 37.61772086 64.07669259 32.72682811 79 29 C79.8146875 28.79375 80.629375 28.5875 81.46875 28.375 C85.0814681 27.8397825 88.67068901 27.8951912 92.3125 27.9375 C93.05306641 27.94201172 93.79363281 27.94652344 94.55664062 27.95117188 C96.37112899 27.96287825 98.18557534 27.98081102 100 28 C96.65716716 40.47990927 89.41772022 52.28302297 81 62 C79.98679687 63.22783203 79.98679687 63.22783203 78.953125 64.48046875 C70.4482129 74.44810509 61.21512686 80.43158177 49 85 C48.01 85.495 48.01 85.495 47 86 C47.96679688 85.98839844 48.93359375 85.97679687 49.9296875 85.96484375 C57.36088832 85.91334038 64.61687607 86.02716485 72 87 C71.68500133 93.34035786 69.67807174 96.34119711 65.4375 100.9375 C64.89029297 101.54940186 64.34308594 102.16130371 63.77929688 102.79174805 C62.20192507 104.54306736 60.60465032 106.27369749 59 108 C58.28972656 108.78117187 57.57945312 109.56234375 56.84765625 110.3671875 C45.16314931 122.66926881 31.39328627 130.06561129 15 134 C21.93 135.98 28.86 137.96 36 140 C32.59911327 148.50221682 25.99841654 153.08713197 18.5 158 C17.71391357 158.51618896 16.92782715 159.03237793 16.11791992 159.56420898 C-0.96368819 170.55940581 -20.70334045 177.55735442 -41.26025391 173.56054688 C-48.52881312 171.7828322 -54.89334732 169.38330285 -61 165 C-59.89913559 157.60848182 -55.63766994 153.64091076 -50 149 C-36.17476487 139.35131556 -22.76464072 134.67646407 -6 133 C-9.63 132.01 -13.26 131.02 -17 130 C-18.32977834 123.35110829 -16.61455211 120.5407784 -13 115 C-2.56017735 101.82873097 10.37748379 92.59179999 27 89 C26.43410156 88.86722656 25.86820313 88.73445313 25.28515625 88.59765625 C24.55167969 88.42105469 23.81820312 88.24445313 23.0625 88.0625 C22.33160156 87.88847656 21.60070312 87.71445312 20.84765625 87.53515625 C19 87 19 87 18 86 C17.88147876 75.38049699 23.42202114 66.65015799 29 58 C29.33 57.67 29.66 57.34 30 57 C27.36 56.34 24.72 55.68 22 55 C21.72027344 56.13695312 21.44054687 57.27390625 21.15234375 58.4453125 C18.23204369 69.85246333 14.58274469 80.12588297 8 90 C4.36029028 89.88970577 2.25430279 88.67471786 -0.375 86.3125 C-12.17936302 73.73492543 -14.79750934 56.78976358 -14.34765625 40.26171875 C-13.65062131 26.4584283 -9.12006925 10.59421838 0 0 Z M33 87 C37 88 37 88 37 88 Z " fill="#050505" transform="translate(619,356)"/>
<path d="M0 0 C6.74376567 0.82503516 10.53964887 5.17962053 15 10 C22.69686445 20.04331224 27.84135363 31.51053896 33 43 C33.66 42.01 34.32 41.02 35 40 C38.39437434 39.23715281 41.5985691 39.29228293 45 40 C47.625 43 47.625 43 49 46 C49.69222656 45.25556641 49.69222656 45.25556641 50.3984375 44.49609375 C58.77353756 35.77341049 70.67431848 25.98503485 83 24 C85.33300933 23.96111651 87.66709801 23.9551365 90 24 C90.55500081 34.86876589 89.41257755 43.59637817 86 54 C85.71125 54.90492188 85.4225 55.80984375 85.125 56.7421875 C82.57238965 63.87582177 78.33382907 69.83695736 74 76 C73.34 76.99 72.68 77.98 72 79 C73.98 79 75.96 79 78 79 C82.66105168 97.51935711 80.8959424 118.03564473 72 135 C65.20247758 145.79017243 56.60541126 155.30091411 45 161 C41.125 161.22265625 41.125 161.22265625 38 161 C34.73035139 145.1383118 33.48756526 131.39302757 40 116 C39.01 116.495 39.01 116.495 38 117 C35.3276379 117.13415472 32.67749512 117.04318541 30 117 C29.90197138 119.17729394 29.90197138 119.17729394 30.875 121.84375 C35.07280001 135.48660004 35.43518843 149.07521833 32 163 C19.21357231 162.58753459 10.61533253 154.92486543 2 146 C-11.6780241 129.90273354 -15.20018721 111.35129588 -15.125 90.75 C-15.12886719 89.67492187 -15.13273438 88.59984375 -15.13671875 87.4921875 C-15.13542969 86.45835937 -15.13414063 85.42453125 -15.1328125 84.359375 C-15.13168457 83.42577148 -15.13055664 82.49216797 -15.12939453 81.53027344 C-15.01051104 79.20554032 -14.65716453 77.22535358 -14 75 C-0.88815996 77.06789852 12.76390446 91.52705335 20.4453125 101.73046875 C22.50445828 104.73640769 24.31466367 107.76977203 26 111 C26.28875 110.071875 26.5775 109.14375 26.875 108.1875 C28 105 28 105 30 102 C32.05859375 101.6015625 32.05859375 101.6015625 34.4375 101.625 C35.61119141 101.61339844 35.61119141 101.61339844 36.80859375 101.6015625 C39.52525433 102.09550079 40.36947348 102.79604672 42 105 C42.6875 107.1875 42.6875 107.1875 43 109 C43.58007812 108.14277344 44.16015625 107.28554688 44.7578125 106.40234375 C48.90159536 100.32213074 53.04652142 94.46152767 58 89 C57.18015625 89.34933594 56.3603125 89.69867188 55.515625 90.05859375 C54.43796875 90.51363281 53.3603125 90.96867187 52.25 91.4375 C51.18265625 91.88996094 50.1153125 92.34242188 49.015625 92.80859375 C44.09719701 94.75175507 40.31952612 95.10229858 35 95 C31.1924375 87.38487501 34.97525365 75.6639813 37 68 C38.48109795 63.9049405 40.14438451 59.93859889 42 56 C39.69 55.34 37.38 54.68 35 54 C34.96132812 55.670625 34.96132812 55.670625 34.921875 57.375 C34.47810629 70.74261083 33.117223 83.37669451 26 95 C16.83156466 93.68564388 10.58921352 86.05079423 5.140625 79.078125 C-8.10853757 60.02640948 -8.8652651 39.57953538 -4.93359375 17.53125 C-3.76531968 11.53385609 -2.03767886 5.76135596 0 0 Z M27 113 C28 115 28 115 28 115 Z " fill="#050505" transform="translate(15,166)"/>
<path d="M0 0 C1.05574219 -0.01611328 2.11148438 -0.03222656 3.19921875 -0.04882812 C19.59109761 -0.05885987 33.67015422 5.5226039 45.53515625 16.9453125 C54.85436191 26.90552173 59.06428431 37.82677447 60.75 51.3125 C49.86 51.3125 38.97 51.3125 27.75 51.3125 C26.1 47.6825 24.45 44.0525 22.75 40.3125 C19.54282687 34.84842726 14.69981715 32.14378794 8.75 30.3125 C-0.64490772 29.12387301 -9.40437676 29.39833744 -17.25 35.3125 C-24.81622117 41.94116768 -28.16542308 51.52452806 -29.25 61.3125 C-30.06508178 74.16791258 -29.22358615 87.64513474 -21.25 98.3125 C-16.29366188 103.70755705 -10.71655153 106.888457 -3.41796875 107.78125 C4.87072939 107.84632319 11.96975986 107.64628891 18.75 102.3125 C23.65296859 97.40953141 25.24349498 92.99651339 27.75 86.3125 C38.64 86.3125 49.53 86.3125 60.75 86.3125 C57.92537129 103.26027227 52.77790939 114.95932403 39.65625 126.23828125 C23.73952295 137.59820338 4.26155638 139.82878875 -14.78759766 136.92578125 C-23.89776392 134.96026534 -31.81503584 130.86678183 -39.25 125.3125 C-39.88035156 124.87550781 -40.51070312 124.43851563 -41.16015625 123.98828125 C-53.76835748 114.42442929 -60.41227124 97.77060407 -62.74609375 82.65234375 C-65.47215395 61.64677583 -62.52715101 39.82198039 -49.625 22.5 C-37.11746911 6.643809 -19.71906462 -0.0593233 0 0 Z " fill="#000000" transform="translate(63.25,605.6875)"/>
<path d="M0 0 C2.375 0.3203125 2.375 0.3203125 5 1 C6.63644919 3.35239571 7.79163016 5.4322141 9 8 C9.60328125 9.16208984 9.60328125 9.16208984 10.21875 10.34765625 C18.37291735 26.83001281 21.55539393 47.37316055 16.1015625 65.23828125 C12.63564711 73.92765068 7.85435607 84.42494726 0 90 C-2.49609375 90.16015625 -2.49609375 90.16015625 -5 89 C-6.60119628 86.65836614 -7.76165886 84.60855602 -8.9375 82.0625 C-9.44410156 81.0115918 -9.44410156 81.0115918 -9.9609375 79.93945312 C-13.71907421 71.8913679 -16.40848152 63.48133319 -19 55 C-21.31 55.66 -23.62 56.32 -26 57 C-25.38511719 57.9178125 -24.77023438 58.835625 -24.13671875 59.78125 C-13.4095923 75.97905633 -13.4095923 75.97905633 -14 87 C-17.96 87.99 -17.96 87.99 -22 89 C-21.36835937 89.1959375 -20.73671875 89.391875 -20.0859375 89.59375 C-2.26652529 95.55067166 10.01575131 105.57896967 20.890625 120.6484375 C22.26757611 123.56718597 22.20215066 125.81153279 22 129 C20.62708132 129.48509793 19.25153297 129.96275513 17.875 130.4375 C17.10929687 130.70433594 16.34359375 130.97117187 15.5546875 131.24609375 C-0.33743044 135.93596953 -18.46011942 133.42420804 -32.98803711 125.94848633 C-38.14732012 123.11285535 -42.32267304 119.71698691 -46.45654297 115.55371094 C-48.37222629 113.62530084 -50.31394566 111.72429302 -52.25390625 109.8203125 C-66.29084858 95.96338819 -66.29084858 95.96338819 -69 92 C-68.75 89.1875 -68.75 89.1875 -68 87 C-63.20406383 86.0998164 -58.48600386 85.70560238 -53.625 85.4375 C-52.88894531 85.39431641 -52.15289062 85.35113281 -51.39453125 85.30664062 C-49.59651932 85.20156201 -47.79828042 85.10037907 -46 85 C-47.14275391 84.58041016 -47.14275391 84.58041016 -48.30859375 84.15234375 C-55.5537326 81.33931231 -61.23473284 78.19868056 -67 73 C-67.85078125 72.25363281 -68.7015625 71.50726563 -69.578125 70.73828125 C-79.6659932 61.32774134 -90.81382605 47.3373449 -95 34 C-95.109375 30.734375 -95.109375 30.734375 -95 28 C-72.39786449 27.41377747 -51.1816833 33.90749412 -34 49 C-33.67 49.33 -33.34 49.66 -33 50 C-32.54625 48.88625 -32.0925 47.7725 -31.625 46.625 C-30 43 -30 43 -28 41 C-24.9631845 41.0328897 -22.00334123 41.57095125 -19 42 C-18.82621826 41.46342773 -18.65243652 40.92685547 -18.47338867 40.37402344 C-13.78766309 26.09049057 -8.5398028 12.44630834 0 0 Z " fill="#050505" transform="translate(106,356)"/>
<path d="M0 0 C10.23 0 20.46 0 31 0 C31.33 16.5 31.66 33 32 50 C33.65 48.35 35.3 46.7 37 45 C43.93956313 38.52307441 50.62470678 36.43859444 59.875 36.5625 C60.66293945 36.56934814 61.45087891 36.57619629 62.26269531 36.58325195 C70.27930444 36.80373348 77.57617426 38.73390003 83.625 44.3359375 C92.96286171 55.63687241 93.30318961 68.16402461 93.1953125 82.1953125 C93.19157392 83.63833417 93.18873095 85.08135841 93.18673706 86.52438354 C93.179167 90.2890547 93.15957702 94.05356707 93.1373291 97.81817627 C93.11309243 102.35295328 93.10405807 106.88778393 93.09242249 111.42260742 C93.07314749 118.2818481 93.03477934 125.14074162 93 132 C82.44 132 71.88 132 61 132 C60.97421875 127.81054688 60.9484375 123.62109375 60.921875 119.3046875 C60.89017706 115.95431091 60.85452578 112.60402804 60.81620789 109.25372314 C60.77690202 105.72251448 60.74448756 102.19155655 60.72900391 98.66015625 C60.71089674 94.60376248 60.66092678 90.54829512 60.609375 86.4921875 C60.60814636 85.23260223 60.60691772 83.97301697 60.60565186 82.67526245 C60.51061652 74.01909494 60.51061652 74.01909494 56 67 C51.30446757 63.86964504 46.49319364 64.44777418 41 65 C37.31358311 66.12359667 37.31358311 66.12359667 35 69 C31.80009249 76.31026947 31.53364145 83.70709131 31.48828125 91.5703125 C31.47033005 92.73255341 31.45237885 93.89479431 31.43388367 95.09225464 C31.38011295 98.76980056 31.34599132 102.44721919 31.3125 106.125 C31.27929765 108.63283009 31.24480533 111.14064345 31.20898438 113.6484375 C31.12200035 119.76563998 31.06164484 125.88228092 31 132 C20.77 132 10.54 132 0 132 C0 88.44 0 44.88 0 0 Z " fill="#000000" transform="translate(136,610)"/>
<path d="M0 0 C7.6018309 7.04033202 10.41313202 17.33510659 10.92370605 27.34202576 C10.98042295 31.27328859 10.9755375 35.20152761 10.9453125 39.1328125 C10.94157392 40.57583417 10.93873095 42.01885841 10.93673706 43.46188354 C10.929167 47.2265547 10.90957702 50.99106707 10.8873291 54.75567627 C10.86309243 59.29045328 10.85405807 63.82528393 10.84242249 68.36010742 C10.82314749 75.2193481 10.78477934 82.07824162 10.75 88.9375 C0.19 88.9375 -10.37 88.9375 -21.25 88.9375 C-21.27578125 84.74804688 -21.3015625 80.55859375 -21.328125 76.2421875 C-21.35982294 72.89181091 -21.39547422 69.54152804 -21.43379211 66.19122314 C-21.47309798 62.66001448 -21.50551244 59.12905655 -21.52099609 55.59765625 C-21.53910326 51.54126248 -21.58907322 47.48579512 -21.640625 43.4296875 C-21.64185364 42.17010223 -21.64308228 40.91051697 -21.64434814 39.61276245 C-21.73938348 30.95659494 -21.73938348 30.95659494 -26.25 23.9375 C-30.94553243 20.80714504 -35.75680636 21.38527418 -41.25 21.9375 C-44.93641689 23.06109667 -44.93641689 23.06109667 -47.25 25.9375 C-50.44990751 33.24776947 -50.71635855 40.64459131 -50.76171875 48.5078125 C-50.77966995 49.67005341 -50.79762115 50.83229431 -50.81611633 52.02975464 C-50.86988705 55.70730056 -50.90400868 59.38471919 -50.9375 63.0625 C-50.97070235 65.57033009 -51.00519467 68.07814345 -51.04101562 70.5859375 C-51.12799965 76.70313998 -51.18835516 82.81978092 -51.25 88.9375 C-61.48 88.9375 -71.71 88.9375 -82.25 88.9375 C-82.25 57.9175 -82.25 26.8975 -82.25 -5.0625 C-72.02 -5.0625 -61.79 -5.0625 -51.25 -5.0625 C-50.92 -1.1025 -50.59 2.8575 -50.25 6.9375 C-49.63125 6.07125 -49.0125 5.205 -48.375 4.3125 C-36.48858666 -10.02612469 -14.53863223 -9.22643969 0 0 Z " fill="#000000" transform="translate(505.25,653.0625)"/>
<path d="M0 0 C9.89956013 7.23082625 16.43900729 16.41609411 19.5859375 28.26953125 C21.80901432 43.26481356 20.64229563 58.68517382 11.49609375 71.20703125 C3.81028234 80.73904279 -5.89710949 86.94175181 -18 89.0625 C-35.11648355 90.28776171 -50.47595338 89.75709511 -64 78.0625 C-73.75401303 68.97821674 -78.34043209 57.9560186 -79.21875 44.78125 C-79.60573836 30.20468853 -76.44154172 16.80850366 -66.4375 5.8125 C-49.33404073 -10.14197449 -19.70084599 -12.41730847 0 0 Z M-43.3515625 24.8125 C-47.95575407 32.49719384 -48.29438612 41.92368346 -46.46875 50.58203125 C-44.59220433 55.91590834 -41.9852392 59.72361775 -37.3125 62.875 C-31.877567 64.82337221 -27.20463981 64.82564455 -21.75 62.9375 C-17.00239569 59.70049706 -13.52206172 55.64339298 -12 50.0625 C-10.39996575 41.60078041 -10.74633851 33.33668559 -14.8125 25.625 C-18.30946156 21.52855931 -21.4964047 18.54623111 -26.98046875 17.7890625 C-33.79653605 17.47540277 -39.07053343 19.26943345 -43.3515625 24.8125 Z " fill="#000000" transform="translate(607,653.9375)"/>
<path d="M0 0 C9.89956013 7.23082625 16.43900729 16.41609411 19.5859375 28.26953125 C21.80901432 43.26481356 20.64229563 58.68517382 11.49609375 71.20703125 C3.81028234 80.73904279 -5.89710949 86.94175181 -18 89.0625 C-35.11648355 90.28776171 -50.47595338 89.75709511 -64 78.0625 C-73.75401303 68.97821674 -78.34043209 57.9560186 -79.21875 44.78125 C-79.60573836 30.20468853 -76.44154172 16.80850366 -66.4375 5.8125 C-49.33404073 -10.14197449 -19.70084599 -12.41730847 0 0 Z M-43.3515625 24.8125 C-47.95575407 32.49719384 -48.29438612 41.92368346 -46.46875 50.58203125 C-44.59220433 55.91590834 -41.9852392 59.72361775 -37.3125 62.875 C-31.877567 64.82337221 -27.20463981 64.82564455 -21.75 62.9375 C-17.00239569 59.70049706 -13.52206172 55.64339298 -12 50.0625 C-10.39996575 41.60078041 -10.74633851 33.33668559 -14.8125 25.625 C-18.30946156 21.52855931 -21.4964047 18.54623111 -26.98046875 17.7890625 C-33.79653605 17.47540277 -39.07053343 19.26943345 -43.3515625 24.8125 Z " fill="#000000" transform="translate(391,653.9375)"/>
<path d="M0 0 C1.57587891 -0.01740234 1.57587891 -0.01740234 3.18359375 -0.03515625 C15.60065478 0.01088971 27.01405939 3.09649396 36.3125 11.625 C41.84907471 17.54695114 44.07224191 24.39018232 44.5 32.375 C43.5 33.375 43.5 33.375 40.81616211 33.48852539 C39.64835205 33.48328857 38.48054199 33.47805176 37.27734375 33.47265625 C36.01728516 33.46943359 34.75722656 33.46621094 33.45898438 33.46289062 C32.11848891 33.45453403 30.77799412 33.44606907 29.4375 33.4375 C28.09310058 33.4324866 26.7486994 33.42792342 25.40429688 33.42382812 C22.10282059 33.41199488 18.80143197 33.39550971 15.5 33.375 C12.5 27.625 12.5 27.625 12.5 25.375 C8.67560545 23.60014286 5.64339266 23.10373126 1.4375 23.125 C-0.09583984 23.11726562 -0.09583984 23.11726562 -1.66015625 23.109375 C-4.50541634 23.37550662 -6.17101314 23.73548011 -8.5 25.375 C-9.31584568 28.43408413 -9.31584568 28.43408413 -9.5 31.375 C-6.43755638 33.99487577 -4.04684925 34.91675975 -0.09765625 35.62109375 C0.95164062 35.81630615 2.0009375 36.01151855 3.08203125 36.21264648 C4.74298828 36.50957397 4.74298828 36.50957397 6.4375 36.8125 C36.38228993 42.52328935 36.38228993 42.52328935 43.16015625 51.59765625 C47.13132453 58.57762055 47.82775381 65.30134856 45.80078125 73.046875 C41.99144523 83.65515251 36.00238545 88.07014268 26.1328125 92.89453125 C12.25519321 98.55003416 -6.77570865 99.0256862 -20.84375 93.63671875 C-31.38950633 88.6274845 -37.99096138 83.4173823 -42.8359375 72.68359375 C-43.5 70.375 -43.5 70.375 -43.5 64.375 C-33.27 64.375 -23.04 64.375 -12.5 64.375 C-11.51 66.355 -10.52 68.335 -9.5 70.375 C-5.72691722 73.44912405 -2.72848052 73.75967004 2.0625 73.6875 C3.73505859 73.68169922 3.73505859 73.68169922 5.44140625 73.67578125 C8.37936635 73.38686308 10.11039063 73.08348556 12.5 71.375 C13.31584568 68.31591587 13.31584568 68.31591587 13.5 65.375 C9.9787483 63.04787371 7.07742595 61.86282338 2.9296875 61.12890625 C1.8675 60.93103516 0.8053125 60.73316406 -0.2890625 60.52929688 C-1.38992188 60.33400391 -2.49078125 60.13871094 -3.625 59.9375 C-17.0144424 57.55911221 -29.01921574 54.89440327 -38.203125 44.25390625 C-42.61084649 37.86802059 -42.04892106 30.84032646 -41.5 23.375 C-40.18094135 17.17446151 -37.0443868 12.39566374 -32.08984375 8.4609375 C-30.77693359 7.61402344 -30.77693359 7.61402344 -29.4375 6.75 C-28.58027344 6.18023438 -27.72304688 5.61046875 -26.83984375 5.0234375 C-18.14058823 0.72976986 -9.58892994 -0.10589002 0 0 Z " fill="#000000" transform="translate(678.5,646.625)"/>
<path d="M0 0 C0.65484375 0.57234375 1.3096875 1.1446875 1.984375 1.734375 C1.984375 2.394375 1.984375 3.054375 1.984375 3.734375 C3.469375 4.229375 3.469375 4.229375 4.984375 4.734375 C8.27726718 8.87401088 8.984375 10.27543043 8.984375 15.734375 C5.684375 17.384375 2.384375 19.034375 -1.015625 20.734375 C0.098125 20.76015625 1.211875 20.7859375 2.359375 20.8125 C16.32418956 21.2703375 28.74641726 23.15356148 41.234375 29.671875 C41.85465576 29.99551025 42.47493652 30.31914551 43.11401367 30.65258789 C46.94354657 32.79273029 49.69680556 34.96696038 51.984375 38.734375 C51.94927372 41.44218806 51.29719984 42.39311154 49.48046875 44.375 C36.38895915 54.60972856 19.94053226 62.44201637 2.984375 60.734375 C-14.7435733 58.52087414 -31.38462728 52.24861051 -47.015625 43.734375 C-46.45996299 39.20534906 -46.45996299 39.20534906 -44.58203125 37.21484375 C-36.5625159 32.0404586 -27.77459171 28.45717207 -19.015625 24.734375 C-20.07136719 24.78658203 -20.07136719 24.78658203 -21.1484375 24.83984375 C-44.84124318 25.48938542 -65.17452002 14.46983222 -82.0625 -1.35546875 C-82.70703125 -1.98582031 -83.3515625 -2.61617188 -84.015625 -3.265625 C-84.59828125 -3.76191406 -85.1809375 -4.25820313 -85.78125 -4.76953125 C-87.015625 -6.265625 -87.015625 -6.265625 -87.015625 -10.265625 C-84.935022 -10.89965491 -82.85093546 -11.52225372 -80.765625 -12.140625 C-79.60546875 -12.48867188 -78.4453125 -12.83671875 -77.25 -13.1953125 C-49.51532196 -20.64458229 -23.23158566 -16.93149464 0 0 Z " fill="#050505" transform="translate(162.015625,506.265625)"/>
<path d="M0 0 C1.67542976 0.28604898 3.34385343 0.61781233 5 1 C5.81783278 4.35288912 6.62829214 7.70751977 7.4375 11.0625 C7.66759766 12.00544922 7.89769531 12.94839844 8.13476562 13.91992188 C11.80502672 29.18608034 13.34325913 45.94369086 8 61 C7.67128906 61.9796875 7.34257813 62.959375 7.00390625 63.96875 C2.63936762 75.6880648 -5.51335998 86.98112011 -16 94 C-19.30078125 94.73828125 -19.30078125 94.73828125 -22 95 C-28.46274104 81.05274068 -30.53239832 68.18321124 -30 53 C-30.99 53.66 -31.98 54.32 -33 55 C-34.65549531 55.38499891 -36.3222433 55.72793135 -38 56 C-37.67386719 56.66644531 -37.34773437 57.33289063 -37.01171875 58.01953125 C-31.2545859 70.16215659 -29.15568825 80.65337961 -30 94 C-30.33 94.33 -30.66 94.66 -31 95 C-43.22828499 94.07160526 -54.62315461 88.79248186 -64 81 C-64.76828125 80.37867188 -65.5365625 79.75734375 -66.328125 79.1171875 C-79.02207531 67.76171495 -83.71819292 50.32369679 -86 34 C-86.06388388 32.04259807 -86.08638169 30.08329853 -86.0625 28.125 C-86.05347656 27.15820312 -86.04445313 26.19140625 -86.03515625 25.1953125 C-86.02355469 24.47085938 -86.01195312 23.74640625 -86 23 C-70.09484435 24.38305701 -56.11889105 35.2125664 -45 46 C-44.525625 45.01 -44.05125 44.02 -43.5625 43 C-41 40 -41 40 -38.87109375 39.49609375 C-34.14282857 39.37925029 -31.67122668 39.87111362 -28 43 C-27.52433594 41.63681641 -27.52433594 41.63681641 -27.0390625 40.24609375 C-21.23696696 24.34001748 -11.90215415 11.90215415 0 0 Z " fill="#050505" transform="translate(710,166)"/>
<path d="M0 0 C1.9375 0.6875 1.9375 0.6875 2.9375 2.6875 C4.71246137 27.22969702 1.34088422 51.83724323 -14.6875 71.375 C-21.36574769 78.52189666 -29.89655731 84.28636841 -39.0625 87.6875 C-40.3825 87.6875 -41.7025 87.6875 -43.0625 87.6875 C-48.57561341 71.60758589 -45.72316347 56.55401955 -41.0625 40.6875 C-41.3925 41.0175 -41.7225 41.3475 -42.0625 41.6875 C-43.58178038 41.75929964 -45.10417482 41.77142007 -46.625 41.75 C-47.45128906 41.74097656 -48.27757812 41.73195313 -49.12890625 41.72265625 C-49.76699219 41.71105469 -50.40507813 41.69945312 -51.0625 41.6875 C-50.85753906 42.32816406 -50.65257812 42.96882813 -50.44140625 43.62890625 C-46.92427651 54.92074384 -46.66945767 65.04978641 -48 76.6875 C-48.13015503 77.83774658 -48.13015503 77.83774658 -48.26293945 79.01123047 C-48.9373713 84.5623713 -48.9373713 84.5623713 -50.0625 85.6875 C-58.57608606 86.49366453 -64.97266074 80.54232196 -71.25 75.375 C-72.6421875 74.0446875 -72.6421875 74.0446875 -74.0625 72.6875 C-74.0625 72.0275 -74.0625 71.3675 -74.0625 70.6875 C-75.5475 70.1925 -75.5475 70.1925 -77.0625 69.6875 C-78.67174549 67.6100026 -80.09862655 65.58617874 -81.5 63.375 C-81.89960937 62.74924072 -82.29921875 62.12348145 -82.7109375 61.47875977 C-88.11032662 52.72356179 -91.18382503 43.1013341 -91.1953125 32.79296875 C-91.19660156 31.67212891 -91.19789063 30.55128906 -91.19921875 29.39648438 C-91.19535156 28.23439453 -91.19148437 27.07230469 -91.1875 25.875 C-91.19136719 24.72451172 -91.19523438 23.57402344 -91.19921875 22.38867188 C-91.19234672 16.39282991 -90.98108652 10.61457013 -90.0625 4.6875 C-87.9375 3.9375 -87.9375 3.9375 -85.0625 3.6875 C-73.18019625 9.7668182 -60.8789961 22.79012161 -55.0625 34.6875 C-54.794375 33.924375 -54.52625 33.16125 -54.25 32.375 C-52.41915914 28.23151806 -52.41915914 28.23151806 -50.0625 26.6875 C-46.08334905 26.18106261 -43.96630134 26.02154112 -40.6875 28.4375 C-39.0868841 30.6537374 -38.62335984 32.07015409 -38.0625 34.6875 C-37.60359375 33.95144531 -37.1446875 33.21539062 -36.671875 32.45703125 C-36.05828125 31.48121094 -35.4446875 30.50539063 -34.8125 29.5 C-34.20921875 28.53707031 -33.6059375 27.57414062 -32.984375 26.58203125 C-31.13765263 23.80068719 -29.27534102 21.18837611 -27.0625 18.6875 C-26.4025 18.6875 -25.7425 18.6875 -25.0625 18.6875 C-25.0625 18.0275 -25.0625 17.3675 -25.0625 16.6875 C-6.18202424 -0.93667034 -6.18202424 -0.93667034 0 0 Z " fill="#050505" transform="translate(726.0625,241.3125)"/>
<path d="M0 0 C8.91637691 7.13310153 16.09382766 15.54393174 17.8125 27.25 C18.82095222 39.67975986 15.67683164 50.25178852 8.3203125 60.28515625 C0.62300339 68.99728472 -11.08333371 72.34091332 -22.32421875 73.19140625 C-32.93192073 73.35229152 -42.34221019 69.55871047 -50.1875 62.43359375 C-59.47337085 52.52733066 -61.78174352 42.04095469 -61.51953125 28.875 C-60.96766787 17.71963813 -55.23049684 9.62839845 -47.1875 2.25 C-33.60294333 -8.94044668 -14.77060194 -8.10935009 0 0 Z M-31.0625 24.5625 C-33.81291948 28.68812922 -34.70244558 32.30652239 -34.1875 37.25 C-32.35789752 41.3906793 -30.39412891 43.54944789 -26.1875 45.25 C-21.20809021 45.9226715 -17.47441268 46.03790572 -13.125 43.375 C-9.69453552 39.61255509 -9.90877653 36.65239881 -9.97265625 31.7265625 C-10.25434509 28.47945841 -11.03607018 26.69817877 -13.1875 24.25 C-18.72096984 20.23823437 -25.4142914 20.60875398 -31.0625 24.5625 Z " fill="#040404" transform="translate(385.1875,134.75)"/>
<path d="M0 0 C9.9 0 19.8 0 30 0 C30.33 3.63 30.66 7.26 31 11 C31.66 9.9275 32.32 8.855 33 7.75 C35.58948698 3.54208366 39.42873536 1.56106331 44 0 C47.1984407 -0.43189647 50.28099647 -0.38522208 53.5 -0.25 C56.305 -0.1675 59.11 -0.085 62 0 C62 8.25 62 16.5 62 25 C57.7925 25.0928125 57.7925 25.0928125 53.5 25.1875 C46.76724726 25.48082946 40.84240927 25.76344113 36 31 C31.27051359 38.17051165 31.81128354 46.45546996 31.68359375 54.7421875 C31.66281265 55.86569611 31.64203156 56.98920471 31.62062073 58.14675903 C31.55542776 61.72277932 31.49638116 65.29887077 31.4375 68.875 C31.394286 71.30469475 31.3506708 73.7343824 31.30664062 76.1640625 C31.19902527 82.10930323 31.09972654 88.05460079 31 94 C20.77 94 10.54 94 0 94 C0 62.98 0 31.96 0 0 Z " fill="#000000" transform="translate(245,648)"/>
<path d="M0 0 C2.39818394 2.61900173 3 3.38748226 3 7 C-18.73520485 18.47890506 -43.45286036 28.34378574 -68.20703125 20.96875 C-69.58955078 20.48921875 -69.58955078 20.48921875 -71 20 C-71.99386719 19.6596875 -72.98773437 19.319375 -74.01171875 18.96875 C-82.27937112 15.83529917 -89.72204336 11.27795664 -96 5 C-96.3359375 2.5625 -96.3359375 2.5625 -96 0 C-73.44757623 -26.2061684 -25.12755154 -15.91828307 0 0 Z " fill="#050505" transform="translate(611,543)"/>
<path d="M0 0 C2.3359375 0.1484375 2.3359375 0.1484375 5 1 C14.6396734 16.76010096 15.40703998 40.27586521 11.4375 57.9375 C8.54679803 69.44420369 2.56652892 78.97971668 -5 88 C-5.515625 88.69480469 -6.03125 89.38960938 -6.5625 90.10546875 C-10.15935941 94.79824626 -10.15935941 94.79824626 -14.125 95.75 C-18.08717325 94.71638959 -18.88999941 93.51666764 -21 90 C-28.60755197 73.94582783 -30.58416137 54.96000362 -25 38 C-19.31451258 23.62711741 -10.08494742 11.55539499 0 0 Z " fill="#050505" transform="translate(86,33)"/>
<path d="M0 0 C5.05409801 0.69741386 6.92854237 2.25136821 10.1015625 6.1171875 C21.91710351 24.05930533 27.79285625 47.10272141 23.46166992 68.27001953 C20.98762399 79.04190106 16.19399343 87.93213642 10 97 C4.14667682 96.17953419 1.60194277 93.51241168 -2 89 C-13.06427 71.85172752 -17.18508067 54.17294846 -13.24609375 34.171875 C-10.2732044 22.28031761 -5.74335758 10.82402005 0 0 Z " fill="#050505" transform="translate(40,97)"/>
<path d="M0 0 C-0.14532422 6.97556266 -3.21330165 10.17256379 -8 15 C-8.86625 15.9075 -9.7325 16.815 -10.625 17.75 C-25.50821639 31.84988921 -43.24536062 34.71188395 -62.99609375 34.30078125 C-73.75768032 33.88909757 -84.46791329 32.21388761 -95 30 C-94.20528768 21.69164394 -88.59631841 17.10359447 -82.51953125 11.859375 C-57.92164356 -7.04490177 -28.83634622 -13.08930923 0 0 Z " fill="#040404" transform="translate(270,559)"/>
<path d="M0 0 C12.26287072 9.49383539 12.26287072 9.49383539 13.4140625 18.0625 C-11.05460786 23.08034568 -39.33898997 27.34528353 -61.62890625 13.2578125 C-68.92138835 7.84384296 -76.32301423 1.51830796 -81.5859375 -5.9375 C-81.8359375 -9 -81.8359375 -9 -80.5859375 -11.9375 C-55.3213926 -29.27591317 -21.71402267 -16.26911668 0 0 Z " fill="#040505" transform="translate(540.5859375,570.9375)"/>
<path d="M0 0 C0.78375 0.04125 1.5675 0.0825 2.375 0.125 C13.3844329 22.49286799 21.43488769 46.35031167 13.375 71.125 C9.75704212 80.38444276 4.72758218 91.26169725 -3.625 97.125 C-6.20703125 97.140625 -6.20703125 97.140625 -8.625 96.125 C-18.2849371 85.04858174 -23.36216611 66.78109354 -22.90625 52.34375 C-21.92504735 41.11443075 -14.24923302 0.67853491 0 0 Z " fill="#050505" transform="translate(686.625,96.875)"/>
<path d="M0 0 C9.69020846 3.4831164 18.11180384 19.69600318 22.44140625 28.7109375 C30.6626489 47.39922567 31.16150887 64.98936083 24.04296875 84.1015625 C22.50504427 87.94144446 20.74519427 91.41226784 18.54296875 94.9140625 C13.16727894 94.77967025 10.33352446 92.65499246 6.55859375 89.125 C-4.54966929 76.94035488 -10.51648208 60.21691479 -11.45703125 43.9140625 C-11.53630859 42.77710937 -11.53630859 42.77710937 -11.6171875 41.6171875 C-12.03549863 29.90447578 -11.14225661 10.93924343 -4.17578125 1.10546875 C-2.45703125 -0.0859375 -2.45703125 -0.0859375 0 0 Z " fill="#050505" transform="translate(641.45703125,33.0859375)"/>
<path d="M0 0 C0.22667425 6.04464663 -0.4751061 11.1759315 -2.0625 17 C-2.28583008 17.8245166 -2.50916016 18.6490332 -2.73925781 19.49853516 C-8.17465311 38.73687646 -17.57412338 57.51388197 -35.5390625 67.65625 C-36.35117187 68.0996875 -37.16328125 68.543125 -38 69 C-38.64710938 69.3815625 -39.29421875 69.763125 -39.9609375 70.15625 C-46.97764353 74.0642888 -56.07686832 77.16085409 -64 75 C-67.63650818 64.09047546 -62.94168724 51.93762078 -58.6484375 41.8125 C-49.12966018 23.09401052 -30.07739028 9.72401655 -11 2 C-10.14148438 1.63003906 -9.28296875 1.26007813 -8.3984375 0.87890625 C-5.4954552 -0.18489019 -3.0672273 -0.14266174 0 0 Z " fill="#050504" transform="translate(729,316)"/>
<path d="M0 0 C18.35257012 1.05880212 35.92135256 14.30088596 48.1875 27.1875 C59.38253596 40.38247052 65.11023051 55.75994835 65 73 C64.67 73.66 64.34 74.32 64 75 C50.01964614 75.79134078 36.72589212 69.71256374 26.08203125 60.890625 C12.70613607 48.74440874 1.966251 29.22059264 0 11 C-0.13465933 7.32572395 -0.12361902 3.67423186 0 0 Z " fill="#040404" transform="translate(0,316)"/>
<path d="M0 0 C0.20574743 6.31582274 -0.3026987 11.63005754 -2.0625 17.6875 C-2.39531982 18.85043579 -2.39531982 18.85043579 -2.73486328 20.03686523 C-6.0840691 31.1821889 -11.20524298 41.28821274 -19 50 C-19.65484375 50.74765625 -20.3096875 51.4953125 -20.984375 52.265625 C-29.57002378 61.47796347 -40.03794542 67.31135251 -52 71 C-53.485 71.495 -53.485 71.495 -55 72 C-56.56118428 72.06740865 -58.1250252 72.08514456 -59.6875 72.0625 C-60.49574219 72.05347656 -61.30398437 72.04445313 -62.13671875 72.03515625 C-62.75160156 72.02355469 -63.36648437 72.01195313 -64 72 C-67.15426411 65.69147179 -64.40348204 54.53070126 -62.44482422 48.02099609 C-56.21967601 29.35516559 -43.36348233 15.78863398 -26.01171875 6.88671875 C-17.36461402 2.67508252 -9.66992534 -0.33929563 0 0 Z " fill="#050506" transform="translate(186,0)"/>
<path d="M0 0 C18.78518996 0.09031341 35.88099 11.48157415 49 24 C51.68798186 27.15973005 53.90808627 30.42187411 56 34 C56.47050781 34.80179688 56.94101562 35.60359375 57.42578125 36.4296875 C62.59399385 45.97334852 66.7683328 59.44355095 64.515625 70.34375 C64.34546875 70.8903125 64.1753125 71.436875 64 72 C49.51196203 72.61217062 35.33094599 64.87551524 24.6875 55.5625 C23.10963473 54.05761414 21.54584884 52.53775539 20 51 C19.37480469 50.40960938 18.74960937 49.81921875 18.10546875 49.2109375 C7.47546685 38.31698521 -0.24838964 19.08891436 -0.3125 3.9375 C-0.209375 2.638125 -0.10625 1.33875 0 0 Z " fill="#050505" transform="translate(543,0)"/>
<path d="M0 0 C2.83300234 0.41314618 4.63288192 0.85942128 7 2.4375 C8.60725635 5.65201269 8.05748185 8.87362536 8 12.4375 C9.03898437 12.23253906 10.07796875 12.02757813 11.1484375 11.81640625 C40.38592318 6.13046159 40.38592318 6.13046159 47 9.4375 C46.51144813 14.48332483 44.77902528 17.98895172 42 22.125 C41.59990723 22.732229 41.19981445 23.33945801 40.78759766 23.96508789 C36.89811424 29.76889077 32.61846162 35.19469079 28 40.4375 C27.42765625 41.09363281 26.8553125 41.74976563 26.265625 42.42578125 C16.51009228 52.9013652 2.41499233 59.93405626 -11.87890625 60.625 C-13.29414523 60.65309894 -14.70954763 60.67387897 -16.125 60.6875 C-16.794104 60.6968457 -17.46320801 60.70619141 -18.15258789 60.71582031 C-22.8189392 60.68590412 -26.6133341 59.87313611 -31 58.4375 C-30.78511783 45.75945226 -23.43442744 35.85267298 -14.8671875 27.1171875 C-10.88206438 23.39267189 -6.63857337 20.29510268 -2 17.4375 C-2.825 16.57125 -3.65 15.705 -4.5 14.8125 C-6.44997137 12.45142355 -6.98965833 11.49380466 -7.5625 8.375 C-6.64583033 3.58794726 -5.00399685 0.72974954 0 0 Z " fill="#050505" transform="translate(111,76.5625)"/>
<path d="M0 0 C2.875 1.5 2.875 1.5 5 4 C5.78549849 8.94864048 5.78549849 8.94864048 5 12 C2.5 15 2.5 15 0 17 C0.50789062 17.37511719 1.01578125 17.75023438 1.5390625 18.13671875 C3.70251145 19.74512555 5.85181228 21.37128313 8 23 C8.99 23.7425 9.98 24.485 11 25.25 C19.45746423 32.48940553 27.42559951 43.51218252 28.875 54.75 C28.91625 55.8225 28.9575 56.895 29 58 C14.2093398 62.7164095 -0.53039834 59.67221066 -14.375 53.25 C-27.76920214 46.03360499 -36.27004097 33.71230922 -44.125 21.0625 C-44.51558594 20.44818115 -44.90617188 19.8338623 -45.30859375 19.20092773 C-47.64423486 15.30730784 -48.42828475 12.52462113 -48 8 C-35.14273961 7.5616843 -22.53773527 9.16695405 -10 12 C-10.0825 10.7625 -10.165 9.525 -10.25 8.25 C-10.23900334 5.1489408 -10.12081946 4.18587609 -8.375 1.5 C-5.25991849 -0.4674199 -3.62829011 -0.5923739 0 0 Z " fill="#050505" transform="translate(620,77)"/>
<path d="M0 0 C10.95251086 0.40564855 19.36244516 7.1470779 26.73828125 14.8046875 C42.25382321 31.93714846 47.9688269 49.458423 48.23046875 72.31640625 C47.9852462 76.23581071 47.20954078 79.28532339 46 83 C35.7871788 82.50583123 27.90194728 78.35591411 20 72 C20 71.34 20 70.68 20 70 C18.515 69.505 18.515 69.505 17 69 C15.41967694 67.09118282 14.0129063 65.22891522 12.625 63.1875 C12.22651855 62.60291016 11.82803711 62.01832031 11.41748047 61.41601562 C0.44878398 44.84903942 -3.87896021 21.69796924 -0.4921875 2.0546875 C-0.32976562 1.37664062 -0.16734375 0.69859375 0 0 Z " fill="#050505" transform="translate(165,450)"/>
<path d="M0 0 C1.9375 0.6875 1.9375 0.6875 2.9375 2.6875 C4.01435367 25.80228927 1.26038026 49.92638005 -14.4375 68.0625 C-21.02688435 74.942264 -29.25321584 82.81021393 -39.18359375 83.92578125 C-41.125 83.9375 -41.125 83.9375 -44.0625 83.6875 C-48.87754023 65.0292191 -45.65872202 47.02589964 -36.18603516 30.54931641 C-30.61472045 21.31705958 -13.07962322 -1.98176109 0 0 Z " fill="#050505" transform="translate(562.0625,449.3125)"/>
<path d="M0 0 C6.73536723 0.82400769 10.55577113 5.17276181 15 10 C26.61664288 24.98994595 33.72983846 42.80590201 32 62 C30.75484478 71.67167074 28.65219236 80.3208111 24 89 C16.60678845 88.30252721 12.94216273 84.2162922 8 79 C-0.78896807 68.1597168 -6.11422558 56.04212978 -7 42 C-7.06445312 41.21238281 -7.12890625 40.42476563 -7.1953125 39.61328125 C-7.49984823 32.49729635 -6.43401362 25.72931943 -5.1875 18.75 C-5.0222583 17.81526855 -4.8570166 16.88053711 -4.68676758 15.91748047 C-3.63103411 10.33029057 -2.15571623 5.26266541 0 0 Z " fill="#050505" transform="translate(129,406)"/>
<path d="M0 0 C1.07314453 0.40992188 1.07314453 0.40992188 2.16796875 0.828125 C2.99061201 3.97139278 3.79915947 7.11813121 4.60546875 10.265625 C4.83556641 11.14412109 5.06566406 12.02261719 5.30273438 12.92773438 C10.0800964 31.69099683 9.46419672 51.43518235 0.16796875 68.828125 C-1.97458574 72.01247204 -4.33070553 74.92149187 -6.83203125 77.828125 C-7.26515625 78.39273438 -7.69828125 78.95734375 -8.14453125 79.5390625 C-11.00006243 83.2399812 -14.4664908 86.9690707 -18.83203125 88.828125 C-21.55078125 88.45703125 -21.55078125 88.45703125 -23.83203125 87.828125 C-30.60241407 69.14496935 -34.00377605 50.78621903 -26.578125 31.5859375 C-21.8780624 21.72477073 -15.28484288 13.27425408 -8.14453125 5.078125 C-7.69311768 4.53994141 -7.2417041 4.00175781 -6.77661133 3.44726562 C-3.48229611 -0.21133935 -3.48229611 -0.21133935 0 0 Z " fill="#050505" transform="translate(598.83203125,406.171875)"/>
<path d="M0 0 C10.9384787 3.74815004 17.68086335 15.27557535 23 25 C24.90070604 28.93090057 26.53468542 32.88846331 28 37 C28.4125 38.155 28.825 39.31 29.25 40.5 C32.95496155 57.78982056 28.89088823 72.82784457 23 89 C15.42027576 88.01367096 11.46370808 85.02401627 6.6640625 79.1328125 C-5.41135146 62.83237784 -10.30061845 43.90581998 -7.4609375 23.8125 C-4.28338028 4.28338028 -4.28338028 4.28338028 0 0 Z " fill="#050505" transform="translate(636,302)"/>
<path d="M0 0 C0.63214216 15.46772837 -8.21615355 31.15784893 -18.3125 42.4375 C-27.36900852 52.07318558 -38.82945959 58.31062807 -52 60 C-54.45754141 60.06578002 -56.91668778 60.08569162 -59.375 60.0625 C-61.24285156 60.04896484 -61.24285156 60.04896484 -63.1484375 60.03515625 C-64.55996094 60.01775391 -64.55996094 60.01775391 -66 60 C-68.55111772 52.34664683 -64.68901137 43.01369025 -61.546875 35.953125 C-52.04843226 17.81973431 -36.82760366 7.96302839 -17.89453125 1.25390625 C-12.03848986 -0.49686901 -6.05708964 -0.18171269 0 0 Z " fill="#050505" transform="translate(124,136)"/>
<path d="M0 0 C0.7425 0.0825 1.485 0.165 2.25 0.25 C9.79085535 21.31834395 13.38431863 43.30144911 3.8125 64.421875 C-0.91586942 73.19663747 -8.25357536 82.77371774 -16.75 88.25 C-19.25 88.5 -19.25 88.5 -21.75 87.25 C-23.6155109 84.43850308 -24.6649456 81.43097144 -25.75 78.25 C-26.20246094 77.01636719 -26.20246094 77.01636719 -26.6640625 75.7578125 C-31.96642653 58.66140511 -29.5367316 40.5486999 -21.6875 24.8125 C-17.49822608 17.35885679 -12.27996468 10.74537965 -6.75 4.25 C-6.08355469 3.45722656 -5.41710937 2.66445313 -4.73046875 1.84765625 C-2.75 0.25 -2.75 0.25 0 0 Z " fill="#050505" transform="translate(91.75,302.75)"/>
<path d="M0 0 C17.35411968 -1.23957998 35.87218633 6.67094434 48.89453125 17.8828125 C58.38102576 27.42210753 66.05600568 41.3801153 66.125 54.9375 C66.09319918 56.62521475 66.05491533 58.31287918 66 60 C48.59823247 60.93922583 34.29863586 55.54245767 20.6875 44.875 C10.24118494 34.98790951 0.48688735 16.44185278 -0.125 2.0625 C-0.08375 1.381875 -0.0425 0.70125 0 0 Z " fill="#050505" transform="translate(605,136)"/>
<path d="M0 0 C3.57587931 2.34220095 6.972464 4.972464 10 8 C10.06880903 14.71576154 8.63943135 21.35079179 7.1875 27.875 C7.03450439 28.60009766 6.88150879 29.32519531 6.72387695 30.07226562 C5.67255341 34.56262924 4.47848234 37.77082868 1 41 C-2.14453125 42.2578125 -2.14453125 42.2578125 -5.8125 43.125 C-6.47411133 43.28258789 -7.13572266 43.44017578 -7.81738281 43.60253906 C-9.19789448 43.92624976 -10.58062457 44.24063412 -11.96533203 44.54589844 C-13.86827207 44.97060068 -15.76092056 45.44070098 -17.65234375 45.9140625 C-27.83199973 48.27936802 -37.60005007 48.30225904 -48 48 C-46.89752049 36.6821407 -39.03644118 28.48468999 -32 20 C-31.55527344 19.39671875 -31.11054688 18.7934375 -30.65234375 18.171875 C-24.75361814 10.45121885 -10.10547835 -1.98146634 0 0 Z " fill="#040404" transform="translate(287,565)"/>
<path d="M0 0 C13.19104698 -0.22196473 28.23323837 7.43421448 38 16 C38.96484375 17.98828125 38.96484375 17.98828125 39 20 C38.0390625 22 38.0390625 22 36.625 24 C33.16640633 28.94636861 32.01251431 33.94766838 33 40 C34.10819791 42.47244156 35.3795479 44.71921528 36.80859375 47.01953125 C38 49 38 49 39 52 C40.32023372 52.69224644 41.65649221 53.35408279 43 54 C44.62017252 55.35289916 46.20061745 56.75407443 47.75 58.1875 C51.6256887 61.75267358 55.56148752 65.21246881 59.6015625 68.58984375 C61 70 61 70 61 72 C46.66855255 72.97162356 34.56348522 66.9229288 23.875 57.8125 C10.23012903 44.9790611 1.06009532 26.36269288 -0.23828125 7.546875 C-0.24802193 5.01429775 -0.19253778 2.52438429 0 0 Z " fill="#050505" transform="translate(211,482)"/>
<path d="M0 0 C1.35164659 17.72158856 -5.67916922 36.40634237 -17.10546875 49.921875 C-17.73066406 50.60765625 -18.35585938 51.2934375 -19 52 C-19.73863281 52.83015625 -20.47726562 53.6603125 -21.23828125 54.515625 C-31.72402788 65.68704246 -43.82399089 71.79555483 -59 73 C-59.33 72.01 -59.66 71.02 -60 70 C-55.48939782 63.23409672 -48.51511488 58.41409301 -42.09375 53.55859375 C-36.5894996 49.30403285 -34.01862042 44.76891793 -33.125 38 C-32.79038871 32.75775644 -33.25993288 28.1267487 -36.6875 23.9375 C-38 22 -38 22 -38 19.19140625 C-36.63983198 14.85055754 -34.01640837 13.28629542 -30.3125 11 C-29.64275146 10.57283691 -28.97300293 10.14567383 -28.28295898 9.70556641 C-19.70239751 4.37733889 -10.40257873 -1.24830945 0 0 Z " fill="#050505" transform="translate(518,482)"/>
<path d="M0 0 C17.93973673 5.44423455 30.97799191 23.05182539 40.51171875 38.2890625 C42.19863721 41.77644201 42.50878631 43.83474503 42.13671875 47.6484375 C32.75078869 48.13252558 24.00374326 47.53746388 14.76171875 45.8359375 C13.40892822 45.5879541 13.40892822 45.5879541 12.02880859 45.33496094 C9.3849793 44.82062741 6.7619817 44.25008069 4.13671875 43.6484375 C3.23018555 43.4520166 2.32365234 43.2555957 1.38964844 43.05322266 C-2.86394065 41.99021476 -5.27558977 41.27824063 -8.31640625 38.01953125 C-10.17024528 33.97947295 -11.48082147 30.00217662 -12.61328125 25.7109375 C-12.83371094 24.93814453 -13.05414063 24.16535156 -13.28125 23.36914062 C-14.54625325 18.72162869 -15.38970663 14.49864885 -14.86328125 9.6484375 C-13.4375 7.28515625 -13.4375 7.28515625 -11.55078125 5.3359375 C-10.93589844 4.67980469 -10.32101562 4.02367187 -9.6875 3.34765625 C-6.41323577 0.29775274 -4.47030091 -0.843453 0 0 Z " fill="#030303" transform="translate(446.86328125,565.3515625)"/>
<path d="M0 0 C4.77504701 3.85163269 8.80270239 7.84641465 12.5625 12.6875 C13.06861816 13.32905029 13.57473633 13.97060059 14.09619141 14.6315918 C18.73677472 20.5605978 23.18712101 26.62890193 27.62475586 32.71044922 C32.41303999 39.25768136 37.35617952 45.67220599 42.38232422 52.03833008 C43.93673324 54.0144407 45.4741835 56.00175715 47 58 C47.43538086 58.56122559 47.87076172 59.12245117 48.31933594 59.70068359 C51.01539992 63.38730316 51.01539992 63.38730316 50.9453125 66.17578125 C49.83700636 68.31453731 48.69128171 69.60334398 46.875 71.1875 C46.31554687 71.69667969 45.75609375 72.20585937 45.1796875 72.73046875 C42.20698708 74.46188029 39.38907109 74.66271834 36 75 C35.6282666 74.28158936 35.2565332 73.56317871 34.87353516 72.82299805 C25.82218217 55.32728278 25.82218217 55.32728278 16.6875 37.875 C16.29377197 37.12726318 15.90004395 36.37952637 15.49438477 35.60913086 C13.50420907 31.83528761 11.5035724 28.0672704 9.4921875 24.3046875 C8.87984253 23.15637451 8.87984253 23.15637451 8.25512695 21.98486328 C7.49058385 20.5521862 6.7237032 19.12075266 5.95385742 17.69091797 C-0.50717602 5.57893621 -0.50717602 5.57893621 0 0 Z " fill="#000000" transform="translate(372,213)"/>
<path d="M0 0 C5.67458259 1.89152753 9.32628019 5.65256038 12 11 C12.55713132 16.95701945 12.52180186 21.95208399 9 27 C4.70191576 31.20257126 0.98325396 33.74038382 -5.09765625 34.13671875 C-10.92009807 33.94696507 -14.27612259 31.92661071 -18.40234375 27.890625 C-21.91883334 23.72930236 -22.41673173 19.21892094 -22.24609375 13.94921875 C-21.65114839 9.23687374 -19.44359253 6.18782368 -15.9375 3.1875 C-10.70758115 -0.70712042 -6.3933649 -0.48901091 0 0 Z " fill="#060606" transform="translate(306,317)"/>
<path d="M0 0 C1.57920981 0.19804423 3.15286858 0.44835967 4.71484375 0.75390625 C7.01925269 1.23671735 7.01925269 1.23671735 9.8359375 0.05078125 C9.8359375 4.67078125 9.8359375 9.29078125 9.8359375 14.05078125 C5.67545731 15.0909013 2.09143182 15.66992079 -2.1640625 15.05078125 C-4.6640625 13.42578125 -4.6640625 13.42578125 -6.1640625 11.05078125 C-6.79795589 7.32665756 -6.38700754 5.5063646 -4.7265625 2.11328125 C-2.1640625 0.05078125 -2.1640625 0.05078125 0 0 Z " fill="#191919" transform="translate(80.1640625,396.94921875)"/>
<path d="M0 0 C2.27734375 -0.43359375 2.27734375 -0.43359375 4.9375 -0.4375 C5.81277344 -0.45683594 6.68804687 -0.47617188 7.58984375 -0.49609375 C10 0 10 0 11.81640625 1.77734375 C13 4 13 4 13 8 C13.99 7.67 14.98 7.34 16 7 C15.67 8.32 15.34 9.64 15 11 C13.68 11 12.36 11 11 11 C10.67 11.99 10.34 12.98 10 14 C7.20129973 15.39935013 5.09501208 15.25265405 2 15 C-0.03667615 13.45493534 -0.86073078 12.27853844 -2 10 C-2.35294118 3.52941176 -2.35294118 3.52941176 0 0 Z " fill="#121212" transform="translate(50,206)"/>
<path d="M0 0 C2.875 1.5 2.875 1.5 5 4 C5.9485198 8.02502316 5.5841738 11.00203642 3.5 14.5625 C0.30454715 16.39988539 -1.60712921 16.21935952 -5.16015625 15.53125 C-7 15 -7 15 -9 13.9375 C-10.66317648 10.71509556 -10.62431691 7.48635399 -10 4 C-7.30203057 -0.15072221 -4.80768487 -0.78492814 0 0 Z " fill="#131313" transform="translate(620,77)"/>
<path d="M0 0 C2.18132978 1.59327544 2.90421685 2.48164412 3.3984375 5.15625 C3.39070312 5.9296875 3.38296875 6.703125 3.375 7.5 C3.38273438 8.2734375 3.39046875 9.046875 3.3984375 9.84375 C2.90095922 12.53598541 2.22435134 13.42545917 0 15 C-2.72507798 15.39078556 -5.23121956 15.13616953 -8 15 C-8.33 14.01 -8.66 13.02 -9 12 C-9.99 12.33 -10.98 12.66 -12 13 C-12 9.04 -12 5.08 -12 1 C-11.01 1.495 -11.01 1.495 -10 2 C-6.30513897 -0.46324069 -4.36706908 -0.38991688 0 0 Z " fill="#181817" transform="translate(651,397)"/>
<path d="M0 0 C2.83300234 0.41314618 4.63288192 0.85942128 7 2.4375 C8.59474241 5.62698483 8.37691092 8.96707489 8 12.4375 C6.38133681 15.38917993 4.89114428 15.46975355 1.625 16.4375 C-2 16.4375 -2 16.4375 -4.9375 14.375 C-7 11.4375 -7 11.4375 -7.5625 8.4375 C-6.65986908 3.62346845 -5.03741085 0.73462242 0 0 Z " fill="#131313" transform="translate(111,76.5625)"/>
<path d="M0 0 C2.66858306 0.53661725 3.56706088 1.24160875 5.15625 3.43359375 C5.90625 10.18359375 5.90625 10.18359375 3.65625 13.93359375 C-0.13101141 16.2059506 -2.45552849 15.99082823 -6.84375 15.43359375 C-8.84375 13.87109375 -8.84375 13.87109375 -9.84375 11.43359375 C-10.2252835 7.87261443 -10.19487019 5.34650623 -8.90625 1.99609375 C-5.99549319 -0.20902505 -3.57069231 -0.00595115 0 0 Z " fill="#141413" transform="translate(51.84375,267.56640625)"/>
<path d="M0 0 C2.4375 1.5625 2.4375 1.5625 4 4 C4.4495791 7.59663278 4.36454848 10.05217395 3.0625 13.4375 C0.12949973 15.6594699 -2.34660438 15.39496545 -5.94140625 15.3359375 C-8 15 -8 15 -10 13 C-10.82098886 10.00512514 -11.12120797 7.10182208 -11 4 C-8.29838656 -0.61525629 -5.05693012 -0.72241859 0 0 Z " fill="#121211" transform="translate(683,268)"/>
<path d="M0 0 C2.1875 0.3125 2.1875 0.3125 4 1 C-0.11619836 5.91935902 -4.40410362 10.52647956 -9 15 C-9.703125 13.25390625 -9.703125 13.25390625 -10 11 C-8.671875 8.96484375 -8.671875 8.96484375 -6.75 6.9375 C-6.12609375 6.26589844 -5.5021875 5.59429687 -4.859375 4.90234375 C-4.24578125 4.27457031 -3.6321875 3.64679688 -3 3 C-2.26523437 2.10474609 -2.26523437 2.10474609 -1.515625 1.19140625 C-1.01546875 0.79824219 -0.5153125 0.40507812 0 0 Z " fill="#242526" transform="translate(618,458)"/>
<path d="M0 0 C1.4540625 0.0309375 1.4540625 0.0309375 2.9375 0.0625 C4.0625 4.8125 4.0625 4.8125 2.9375 7.0625 C0.6275 7.0625 -1.6825 7.0625 -4.0625 7.0625 C-4.10504356 5.06295254 -4.10330783 3.06208364 -4.0625 1.0625 C-3.0625 0.0625 -3.0625 0.0625 0 0 Z " fill="#181917" transform="translate(426.0625,294.9375)"/>
<path d="M0 0 C-0.804375 0.474375 -1.60875 0.94875 -2.4375 1.4375 C-5.99017572 4.99017572 -5.88578623 8.14072325 -6 13 C-6.99 12.34 -7.98 11.68 -9 11 C-9.40203506 7.38168449 -9.41099832 4.89049636 -7.875 1.5625 C-5.24871143 -0.6260738 -3.31446363 -0.29461899 0 0 Z " fill="#434241" transform="translate(675,206)"/>
<path d="M0 0 C1.32 0.33 2.64 0.66 4 1 C2.02 3.31 0.04 5.62 -2 8 C-3.32 7.67 -4.64 7.34 -6 7 C-4.02 4.69 -2.04 2.38 0 0 Z " fill="#252626" transform="translate(72,204)"/>
<path d="M0 0 C1.65 0 3.3 0 5 0 C5 1.98 5 3.96 5 6 C3.35 6 1.7 6 0 6 C0 4.02 0 2.04 0 0 Z " fill="#2B2B2A" transform="translate(437,316)"/>
<path d="M0 0 C1.65 0.33 3.3 0.66 5 1 C5 2.32 5 3.64 5 5 C3.02 5 1.04 5 -1 5 C-0.67 3.35 -0.34 1.7 0 0 Z " fill="#272724" transform="translate(418,287)"/>
<path d="M0 0 C1.32 0 2.64 0 4 0 C4 1.65 4 3.3 4 5 C2.35 4.67 0.7 4.34 -1 4 C-0.67 2.68 -0.34 1.36 0 0 Z " fill="#2E2E2D" transform="translate(442,324)"/>
</svg>
