<svg viewBox="0 0 729 743"><path fill="#020202" d="M255 36h3a4285 4285 0 0 1 88 0h2a15821 15821 0 0 0 123 0l3-1c7 1 14 2 19 7 6 6 6 13 6 21v3a1587 1587 0 0 1 0 30v17a24165 24165 0 0 1 1 67v4a80297 80297 0 0 1 0 194c0 23 0 23-5 30l-3 2-2 2c-6 4-15 3-22 3a769098783 769098783 0 0 0-88 0h-4a12912 12912 0 0 0-121 0l-3 1c-7-1-13-3-19-8-5-6-5-12-5-20v-14a22670 22670 0 0 0-1-123v-2a1345469 1345469 0 0 0 0-186c0-9 0-15 6-21 7-6 14-6 22-6Zm46 26-3 2c-28 16-47 45-55 76-7 30-2 62 13 89 18 30 46 51 80 60 18 4 37 3 55-1l9-1 5-1 1 2c1 4 2 4 6 5l2 1 2 1v7c2 8 11 14 17 20l2 2a3223 3223 0 0 0 8 8c2 2 2 2 5 2h2c0-7-2-12-5-18-3-5-4-10-5-15s-3-7-7-10l-3-1-2-1-2-11v-5l2-1c25-11 42-39 52-63 5-13 6-27 6-41v-2c0-34-13-63-37-87l-2-2c-22-21-53-31-83-32-22 0-43 6-63 17Zm-63-12-1 9 5 5c4 1 8 1 11-2 2-3 2-6 2-10-2-4-3-5-7-6-5 0-7 1-10 4Zm235 0-1 9 5 5c4 1 8 1 11-2 2-3 2-6 2-10-2-4-3-5-7-6-5 0-7 1-10 4ZM238 245l-1 9 5 5c4 1 8 1 11-2 2-3 3-6 2-10l-5-5-1-1c-5-1-8 1-11 4Zm234 1c-1 4 0 6 2 9s2 3 5 4c5 0 8-2 11-5 1-6 1-6-2-11-6-4-11-2-16 3Zm-196 69c-6 7-7 14-7 23 2 8 5 14 10 19 8 7 17 9 27 8 9-2 16-6 21-13 6-9 6-18 5-28-3-9-11-16-18-20l-7-2h-2c-12-1-21 4-29 13Zm-38 75-1 9c2 3 3 5 7 5 4 1 6 0 9-2 2-3 3-5 3-9-2-4-4-5-7-7-5-1-8 1-11 4Zm234 1v8l5 5c4 1 8 1 11-2 2-3 3-6 2-10l-5-6c-6-1-9 0-13 5Z"/><path fill="#010101" d="m363 446 4 1 3 6v2l3 6a1821 1821 0 0 0 4 13l8 20a77745 77745 0 0 1 7 22h75c-2 5-4 7-8 11l-2 1a323 323 0 0 1-24 21l-12 10-4 4-3 1v2l-2 1a127 127 0 0 0 6 29 10139 10139 0 0 0 6 23l1 4c1 6 3 12 3 19-4-1-7-3-11-6l-1-1-4-3-9-6a8435 8435 0 0 1-29-20l-2-2-3-2c-3-2-5-1-9 0l-5 4-16 11-23 16c-11 8-11 8-15 8a127 127 0 0 1 5-25l3-12 2-8 4-14v-3l2-5c0-4 1-6-2-9l-3-3a5455 5455 0 0 1-50-43l-1-3h76l2-9 3-8 1-2a1943 1943 0 0 1 15-41l1-3 1-2 1-2 2-3Z"/><path fill="#050505" d="M619 356c3 0 5 1 7 3 7 11 15 26 15 40l3-2c6-1 6-1 9 1l3 8 1-1c12-11 26-16 41-20l2-1h19c-3 12-11 24-19 34l-2 2c-9 10-18 16-30 21l-2 1h3l22 1c0 6-2 9-7 14l-1 2a450 450 0 0 1-7 7 82 82 0 0 1-42 24l21 6c-3 9-10 13-17 18l-3 2a78 78 0 0 1-57 14c-8-2-14-5-20-9 1-7 5-11 11-16 14-10 27-14 44-16l-11-3c-1-7 0-9 4-15 10-13 23-22 40-26h-2l-2-1h-2l-3-2c0-11 5-19 11-28l1-1-8-2-1 3c-3 12-6 22-13 32-4 0-6-1-8-4-12-12-15-29-14-46 0-14 5-29 14-40Zm33 87 4 1ZM15 166c7 1 11 5 15 10 8 10 13 22 18 33l2-3h10l4 6 1-2c9-8 21-18 33-20h7c1 11-1 20-4 30l-1 3c-2 7-7 13-11 19l-2 3h6c5 19 3 39-6 56-7 11-15 20-27 26h-7c-3-16-5-30 2-45l-2 1h-8l1 5c4 13 4 27 1 41-13 0-21-8-30-17a80 80 0 0 1-17-55v-4a435814853 435814853 0 0 1 1-12c13 2 27 17 34 27l6 9 1-3 3-6h7c3 0 3 1 5 3l1 4 2-3 13-17-2 1-4 1-3 2c-5 2-9 2-14 2-4-8 0-19 2-27l5-12-7-2v3c-1 14-2 26-9 38-9-1-15-9-21-16-13-19-14-39-10-61l5-18Zm27 113 1 2Z"/><path d="M63 606h3c17 0 31 5 43 17 9 10 13 21 15 34H91l-5-11c-3-5-8-8-14-10-9-1-18-1-26 5-8 7-11 16-12 26-1 13 0 26 8 37 5 5 11 9 18 9 8 1 15 0 22-5 5-5 6-9 9-16h33c-3 17-8 29-21 40a73 73 0 0 1-55 11c-9-2-17-6-24-12l-2-1a64 64 0 0 1-21-42c-3-21 0-42 13-60 12-16 30-22 49-22Z"/><path fill="#050505" d="m106 356 5 1a45 45 0 0 1 5 9c8 17 12 37 6 55-3 9-8 19-16 25l-5-1-4-7-1-2c-4-8-6-17-9-25l-7 2 2 3c11 16 11 16 10 27l-8 2 2 1c18 6 30 16 41 31l1 8-4 1-2 1c-16 5-34 2-49-5l-13-10-6-6-17-18 1-5 14-2h8l-2-1c-8-3-13-6-19-11l-3-2c-10-10-21-24-25-37v-6a87 87 0 0 1 62 22l1-3 4-6 9 1 1-2c4-14 9-28 18-40Z"/><path d="M136 610h31l1 50 5-5c7-6 14-9 23-8h2c8 0 16 2 22 7 9 12 9 24 9 38a3581 3581 0 0 0 0 16v34h-32v-13a5087 5087 0 0 0 0-33v-3c0-9 0-9-5-16-5-3-10-3-15-2-4 1-4 1-6 4-3 7-3 15-4 23v3a2001 2001 0 0 0 0 19v18h-31V610ZM505 653c8 7 11 17 11 27a533 533 0 0 1 0 28v34h-32v-13a5087 5087 0 0 0 0-33v-3c0-9 0-9-5-16-5-3-10-3-15-2-4 1-4 1-6 4-3 7-3 15-4 23v3a2001 2001 0 0 0 0 19v18h-31v-94h31l1 12 2-3c12-14 34-13 48-4ZM607 654c10 7 16 16 20 28 2 15 1 31-9 43-7 10-17 16-29 18-17 1-32 1-46-11-10-9-14-20-15-33-1-15 3-28 13-39 17-16 46-18 66-6Zm-43 25c-5 7-5 17-3 26 1 5 4 9 9 12 5 2 10 2 15 0 5-3 8-7 10-13 2-8 1-17-3-24-3-5-6-8-12-8-7-1-12 1-16 7ZM391 654c10 7 16 16 20 28 2 15 1 31-9 43-7 10-17 16-29 18-17 1-32 1-46-11-10-9-14-20-15-33-1-15 3-28 13-39 17-16 46-18 66-6Zm-43 25c-5 7-5 17-3 26 1 5 4 9 9 12 5 2 10 2 15 0 5-3 8-7 10-13 2-8 1-17-3-24-3-5-6-8-12-8-7-1-12 1-16 7ZM679 647h3c12 0 24 3 33 11 5 6 8 13 8 21l-4 1h-7a25371 25371 0 0 1-18 0l-3-8c-4-2-7-2-11-2h-3c-3 0-5 0-7 2l-1 6c3 3 5 4 9 4l4 1h3c30 6 30 6 37 15 4 7 4 14 2 22-4 10-9 15-19 20-14 5-33 6-47 0-11-5-17-10-22-21l-1-8h31l3 6c4 3 7 3 12 3h3c3 0 5 0 7-2l1-6c-4-2-6-4-11-4l-3-1h-3c-14-3-26-5-35-16-4-7-4-14-3-21 1-6 4-11 9-15l3-2 3-1c8-5 17-5 27-5Z"/><path fill="#050505" d="m162 506 2 2v2l3 1c3 4 4 6 4 11l-10 5h3c14 1 27 2 39 9l2 1c4 2 7 4 9 8 0 3-1 4-3 6a67 67 0 0 1-46 16c-18-2-34-8-50-17l2-7c8-5 17-8 26-12h-2c-24 1-44-10-61-26l-2-2-2-2-1-5 6-2 4-1c28-7 54-4 77 13ZM710 166l5 1 2 10 1 3c4 15 5 32 0 47l-1 3c-4 12-13 23-23 30l-6 1c-6-14-9-27-8-42l-3 2-5 1 1 2c6 12 8 23 7 36l-1 1c-12-1-24-6-33-14l-2-2c-13-11-18-29-20-45v-11c16 1 30 12 41 23l1-3 5-4c5 0 7 1 11 4l1-3c6-16 15-28 27-40Z"/><path fill="#050505" d="m726 241 3 3c2 25-2 49-18 69-6 7-15 13-24 16h-4c-6-16-3-31 2-47l-1 1h-9l1 2c3 11 3 21 2 33v2l-2 7c-9 1-15-5-21-10l-3-3v-2l-3-1-4-6-2-2c-5-9-8-19-8-29v-10l1-18 5-1c12 6 24 19 30 31l1-2 4-6c4-1 6-1 9 2l3 6 1-2 2-3 2-3 6-8h2v-2c19-18 19-18 25-17Z"/><path fill="#040404" d="M385 135c9 7 16 15 18 27 1 12-2 23-9 33-8 9-20 12-31 13-11 0-20-4-28-11-9-10-12-20-11-33 0-12 6-20 14-27 14-11 32-10 47-2Zm-31 24c-3 4-4 8-3 13 2 4 4 6 8 8 5 1 9 1 13-2 3-4 3-7 3-12 0-3-1-5-3-7-6-4-12-4-18 0Z"/><path d="M245 648h30l1 11 2-3c3-4 6-6 11-8h18v25h-8c-7 0-13 1-18 6-5 7-4 15-4 24v3a6079 6079 0 0 0-1 18v18h-31v-94Z"/><path fill="#050505" d="M611 543c2 3 3 3 3 7-22 11-46 21-71 14l-3-1-3-1c-8-3-16-8-22-14v-5c23-26 71-16 96 0ZM86 33l5 1c10 16 10 39 6 57-2 11-8 21-16 30l-2 2c-3 5-3 5-7 6-4-1-5-2-7-6-8-16-10-35-4-52 6-14 15-26 25-38ZM40 97c5 1 7 2 10 6 12 18 18 41 13 62-2 11-7 20-13 29-6-1-8-3-12-8a71 71 0 0 1-11-55c3-12 7-23 13-34Z"/><path fill="#040404" d="M270 559c0 7-3 10-8 15l-3 3c-15 14-32 17-52 16-11 0-21-2-32-4 1-8 6-13 12-18 25-19 54-25 83-12Z"/><path fill="#040505" d="M541 571c12 9 12 9 13 18-24 5-53 9-75-5-7-5-15-12-20-19l1-6c25-17 59-4 81 12Z"/><path fill="#050505" d="M687 97h2c11 22 19 46 11 71-4 9-9 20-17 26l-5-1a68 68 0 0 1-14-44c1-11 8-51 23-52ZM641 33c10 4 19 20 23 29a70 70 0 0 1-4 66c-5 0-8-2-12-6a74 74 0 0 1-18-45v-2c-1-12 0-31 7-41l4-1Z"/><path fill="#050504" d="M729 316a54 54 0 0 1-3 19c-5 20-15 39-33 49l-2 1-2 1c-7 4-16 7-24 5-4-11 1-23 5-33 10-19 29-32 48-40l3-1 8-1Z"/><path fill="#040404" d="M0 316c18 1 36 14 48 27 11 13 17 29 17 46l-1 2c-14 1-27-5-38-14a84 84 0 0 1-26-50v-11Z"/><path fill="#050506" d="M186 0c0 6 0 12-2 18l-1 2c-3 11-8 21-16 30l-2 2c-9 9-19 15-31 19l-3 1h-9c-3-6 0-17 2-24 6-19 19-32 36-41 9-4 16-7 26-7Z"/><path fill="#050505" d="M543 0c19 0 36 11 49 24a68 68 0 0 1 8 12c6 10 10 23 8 34l-1 2c-14 1-29-7-39-16a311 311 0 0 1-7-7 72 72 0 0 1-18-45V0ZM111 77c3 0 5 0 7 2 2 3 1 6 1 10l3-1c29-5 29-5 36-2 0 5-2 9-5 13l-1 2-13 16-2 2a57 57 0 0 1-42 18h-2l-13-2c0-13 8-23 16-31l13-10-2-3-4-6c1-5 3-8 8-8ZM620 77l5 4v8l-5 5 2 1 6 5 3 2c8 7 16 19 18 30v3c-15 5-30 2-43-5a84 84 0 0 1-31-34c-3-4-3-6-3-11 13 0 25 1 38 4v-4c0-3 0-4 2-6 3-2 4-3 8-2ZM165 450c11 0 19 7 27 15 15 17 21 34 21 57l-2 11c-10 0-18-5-26-11v-2l-3-1-4-6-2-2a86 86 0 0 1-11-59v-2ZM562 449l3 3c1 23-2 47-17 65-7 7-15 15-25 16h-5c-5-19-2-37 8-53 5-9 23-33 36-31ZM129 406c7 1 11 5 15 10 12 15 19 33 17 52-1 10-3 18-8 27-7-1-11-5-16-10-9-11-14-23-15-37v-2l2-21v-3l5-16ZM599 406l2 1 2 9 1 3c5 19 4 39-5 56l-7 9-1 2-11 9-5-1c-7-19-10-37-3-56 5-10 12-19 19-27l1-1c3-4 3-4 7-4ZM636 302c11 4 18 15 23 25a120 120 0 0 1 6 16c4 17 0 32-6 48-8-1-12-4-16-10a73 73 0 0 1-14-55c3-20 3-20 7-24ZM124 136c1 15-8 31-18 42-9 10-21 16-34 18H58c-3-8 1-17 4-24 10-18 25-28 44-35l18-1ZM92 303h2c8 21 11 43 2 64-5 9-13 19-21 24l-5-1-4-9-1-2c-5-18-3-36 5-51 4-8 9-15 15-21l2-2c2-2 2-2 5-2Z"/><path fill="#050505" d="M605 136c17-1 36 7 49 18a56 56 0 0 1 17 42c-17 1-32-4-45-15a72 72 0 0 1-21-43v-2Z"/><path fill="#040404" d="m287 565 10 8c0 7-1 13-3 20v2c-1 5-3 8-6 11l-7 2-2 1a319 319 0 0 1-10 2c-10 2-20 2-30 2 1-11 9-20 16-28l1-2c6-8 21-20 31-18Z"/><path fill="#050505" d="M211 482c13 0 28 7 38 16l1 4-2 4c-4 5-5 10-4 16l4 7 2 5 4 2 5 4 12 11 1 3c-14 1-26-5-37-14a78 78 0 0 1-24-50v-8ZM518 482c1 18-6 36-17 50l-2 2-2 3a56 56 0 0 1-38 18l-1-3c5-7 11-12 18-16 5-5 8-9 9-16 0-5 0-10-4-14l-1-5c1-4 4-6 8-8l2-1c8-6 18-11 28-10Z"/><path fill="#030303" d="M447 565c18 6 31 23 40 39 2 3 2 5 2 9-9 0-18 0-27-2h-3a243 243 0 0 1-11-3c-4-1-6-1-9-5a74 74 0 0 1-5-14c-2-5-3-9-2-14l3-4 2-2c3-3 5-4 10-4Z"/><path d="M372 213a75 75 0 0 1 14 15 669 669 0 0 1 33 43l1 2c3 3 3 3 3 6l-4 5-2 2-9 2-1-2-18-35-2-2-6-12-1-2-2-4c-7-12-7-12-6-18Z"/><path fill="#060606" d="M306 317c6 2 9 6 12 11 1 6 1 11-3 16-4 4-8 7-14 7s-9-2-13-6-4-9-4-14 3-8 6-11c5-4 10-3 16-3Z"/><path fill="#191919" d="m80 397 5 1 5-1v14c-4 1-8 2-12 1l-4-4c-1-4 0-6 1-9l5-2Z"/><path fill="#121212" d="M50 206h8l4 2 1 6 3-1-1 4h-4l-1 3-8 1-4-5c0-6 0-6 2-10Z"/><path fill="#131313" d="m620 77 5 4c1 4 1 7-1 11l-9 1-4-2c-2-3-2-7-1-10 3-4 5-5 10-4Z"/><path fill="#181817" d="M651 397c2 2 3 2 3 5v5c0 3-1 3-3 5h-8l-1-3-3 1v-12l2 1c4-2 6-2 10-2Z"/><path fill="#131313" d="M111 77c3 0 5 0 7 2 2 3 1 7 1 10-2 3-3 3-6 4-4 0-4 0-7-2l-3-6c1-5 3-8 8-8Z"/><path fill="#141413" d="M52 268c3 0 3 1 5 3 1 7 1 7-1 11-4 2-7 2-11 1l-3-4 1-9c3-3 5-2 9-2Z"/><path fill="#121211" d="m683 268 4 4-1 9c-3 3-5 2-9 2l-4-2-1-9c3-5 6-5 11-4Z"/><path fill="#242526" d="m618 458 4 1-13 14-1-4 3-4 2-2 2-2 1-2 2-1Z"/><path fill="#181917" d="M426 295h3v7h-7v-6l4-1Z"/><path fill="#434241" d="m675 206-2 1c-4 4-4 7-4 12l-3-2 1-9c3-3 5-2 8-2Z"/><path fill="#252626" d="m72 204 4 1-6 7-4-1 6-7Z"/><path fill="#2B2B2A" d="M437 316h5v6h-5v-6Z"/><path fill="#272724" d="m418 287 5 1v4h-6l1-5Z"/><path fill="#2E2E2D" d="M442 324h4v5l-5-1 1-4Z"/></svg>