<?xml version="1.0" encoding="UTF-8"?><svg version="1.1" xmlns="http://www.w3.org/2000/svg" width="729" height="743"><path d="M255.5 35.9h2.9l47-.2h42.9l88.3-.2h37c7 0 14 1.5 19.4 6.2 5.8 6 6.3 13.8 6.3 21.8v2.4l.1 30.2v17l.3 67v3.7l.6 194.4c.2 22.6.2 22.6-5.7 29.7L492 410l-1.9 1.6c-6.1 4.1-14.9 3.7-22 3.7h-92l-87.3.2h-36.6c-7.5 0-13.5-2.1-19.1-7-5.6-6.6-5.2-12.5-5.3-20.7v-13.5l-.3-86-.1-37V249l-.6-185.8c0-8.7.5-15.1 6.6-21.7 6.3-5.8 14-5.6 22-5.6M301 62l-3 1.6a126 126 0 0 0-55 76.4 125 125 0 0 0 12.7 89c18.3 29.7 46 51.4 80.1 59.5 18.3 4.1 36.8 3.3 55.1-.1l9.3-1.6 4.8-.8.7 2.4c1.6 3.2 2.7 3.7 6 5l2.4.9 1.9.7v4.5l.1 2.5c2.4 7.9 10.9 14.1 16.6 19.7l2.2 2.3 8.2 8.2c1.8 2 1.8 2 4.7 2l2.2-.2c-.2-7.1-2.3-12-5.4-18.3a78 78 0 0 1-4.7-15c-1.2-4.8-2.7-7-6.9-9.7l-2.7-1-2.3-1q-1.3-5.3-1.6-10.8l-.2-3-.2-2.2 2.2-.8c24.8-10.7 42-39.3 51.8-63.2a113 113 0 0 0 6.4-41.1v-2c-.2-34-13.9-62.7-37.4-86.9l-2.3-2.4c-21.5-20.8-53-31-82.4-32q-33.8.8-63.3 17.4m-63-12c-1.1 3-1.4 5.7-1 9 1.8 3.2 1.8 3.2 5 5 4.1.5 7.6.5 11-2 2.3-3.2 2.5-6.1 2-10-2-3.7-3.3-4.8-7.4-6-4.6 0-6.3.7-9.6 4m235 0c-1.1 3-1.4 5.7-1 9 1.8 3.2 1.8 3.2 5 5 4.1.5 7.6.5 11-2 2.3-3.2 2.5-6.1 2-10-2-3.7-3.3-4.8-7.4-6-4.6 0-6.3.7-9.6 4M238 245c-1.1 3-1.4 5.7-1 9 1.8 3.2 1.8 3.2 5 5 4.1.5 7.6.5 11-2 2.3-3.2 2.6-6.1 2-10-2.3-2.8-2.3-2.8-5-5l-1-1c-4.8-.7-7.5.8-11 4m234 1c-.8 4-.1 5.7 1.6 9.3 2.2 3 2.2 3 5.8 3.8 4.6-.1 7.3-1.8 10.6-5.1.6-5.9.6-5.9-2-11-6.5-4.4-11.3-2.3-16 3m-196.2 68.8c-5.7 7-6.6 14.6-6.3 23.4q1.5 11.4 9.8 19.3 12 8.9 26.7 7.5a31 31 0 0 0 21.4-13.4c5.2-8.7 5.8-18 4.2-28a38 38 0 0 0-17.8-19.8 18 18 0 0 0-6.8-1.8l-2-.2c-12-.5-21 4.4-29.2 13M238 390c-1.1 3-1.4 5.7-1 9 2 3.1 3.3 4.6 7 5.5 3.9.3 5.7-.3 9-2.5 2.2-3.3 2.8-5.1 2.6-9-1.1-3.8-3.3-5-6.6-7-4.7-1-7.6.8-11 4m234 1c-.8 2.9-.8 5.1 0 8 1.9 3.1 1.9 3.1 5 5 4.1.5 7.6.5 11-2 2.3-3.2 2.5-6.1 2-10-2-3.5-2-3.5-5-6-6-1.2-9.1.5-13 5" fill="#020202"/><path d="M363 446c1.9 0 1.9 0 4 1 1.4 2.5 1.4 2.5 2.6 5.9l.7 1.8 2.3 6.1 4.8 12.9 7.7 20 6 14.8c.9 2.5.9 2.5.9 7.5h75c-2 5-4 7.3-8 10.8l-1.7 1.5q-6.6 6-13.6 11.4-5.2 4.5-10.3 9.3-6 5.4-12.3 10.3c-2.1 1.6-2.1 1.6-3.8 3.4-1.3 1.3-1.3 1.3-3.3 1.3v2l-2 1a127 127 0 0 0 4.1 21.8L424 619l.9 3.5q2.5 9.5 3.2 19.4a42 42 0 0 1-10.6-5.7l-1.6-1.2-3.7-2.6-9.5-6.7-28.4-20-2.6-2-2.2-1.7c-3.5-1.6-5.7-1-9.4-.1-2.7 1.6-2.7 1.6-5.2 3.8q-7.7 6-15.8 11.4-11.8 8-23.4 16.2c-10.8 7.6-10.8 7.6-14.6 7.6a127 127 0 0 1 5-25.4l3-11.5 2-7.7 3.6-14.2.8-2.8q.6-2.7 1.6-5.4c.5-4 .7-6.2-2-9.4l-3-2.6-4.2-3.8-9.5-8a517 517 0 0 1-27-23.2l-8.9-7.6C261 518 261 518 261 516h76l2-9q1.4-4.2 3-8.2l.8-2.2 11.7-30.6 3.8-9.7 1.1-3 1-2.5.9-2.2c.7-1.6.7-1.6 1.7-2.6" fill="#010101"/><path d="M619 356c2.9.3 4.5.5 6.6 2.6 7 11.3 15.4 26.6 15.4 40.4l3-2c6.1-.5 6.1-.5 8.8 1.1a29 29 0 0 1 3.2 7.9l1.4-1.5c11.3-10.9 25.7-15.8 40.6-19.5l2.5-.6c3.6-.6 7.2-.5 10.8-.5h2.3l5.4.1a89 89 0 0 1-19 34l-2 2.5c-8.6 10-17.8 16-30 20.5l-2 1h3c7.4 0 14.6 0 22 1-.3 6.3-2.3 9.3-6.6 14l-1.6 1.8-7 7.6A82 82 0 0 1 634 490l21 6c-3.4 8.5-10 13-17.5 18l-2.4 1.6c-17 11-36.8 18-57.4 14A55 55 0 0 1 558 521c1.1-7.4 5.4-11.4 11-16a88 88 0 0 1 44-16l-11-3c-1.3-6.6.4-9.5 4-15a69 69 0 0 1 40-26l-1.7-.4-2.2-.5-2.3-.6c-1.8-.5-1.8-.5-2.8-1.5-.1-10.6 5.4-19.3 11-28l1-1-8-2-.8 3.4A99 99 0 0 1 627 446c-3.6-.1-5.7-1.3-8.4-3.7-11.8-12.6-14.4-29.5-14-46A69 69 0 0 1 619 356m33 87 4 1Z" fill="#050505"/><path d="M15 166c6.7.8 10.5 5.2 15 10 7.7 10 12.8 21.5 18 33l2-3a23 23 0 0 1 10 0c2.6 3 2.6 3 4 6l1.4-1.5C73.8 201.8 85.7 192 98 190h7c.6 10.9-.6 19.6-4 30l-.9 2.7C97.6 230 93.3 235.8 89 242l-2 3h6a80 80 0 0 1-6 56 68 68 0 0 1-27 26c-3.9.2-3.9.2-7 0-3.3-15.9-4.5-29.6 2-45l-2 1h-8c-.1 2.2-.1 2.2.9 4.8A75 75 0 0 1 47 329c-12.8-.4-21.4-8-30-17C3.3 295.9-.2 277.4-.1 256.8v-9.3q0-3.3 1.1-6.5c13.1 2 26.8 16.5 34.4 26.7q3.2 4.4 5.6 9.3l.9-2.8C43 271 43 271 45 268c2-.4 2-.4 4.4-.4h2.4c2.7.5 3.6 1.2 5.2 3.4.7 2.2.7 2.2 1 4l1.8-2.6c4.1-6 8.2-12 13.2-17.4l-2.5 1-3.2 1.4-3.3 1.4c-4.9 2-8.7 2.3-14 2.2-3.8-7.6 0-19.3 2-27q2.2-6 5-12l-7-2v3.4c-.5 13.3-1.9 26-9 37.6-9.2-1.3-15.4-9-20.9-16-13.2-19-14-39.4-10-61.5q1.8-8.9 4.9-17.5m27 113 1 2Z" fill="#050505"/><path d="M63.3 605.7h3.1q24.6-.1 42.4 17A58 58 0 0 1 124 657H91l-5-11c-3.2-5.5-8-8.2-14-10-9.4-1.2-18.2-1-26 5a39 39 0 0 0-12 26c-.8 12.9 0 26.3 8 37 5 5.4 10.5 8.6 17.8 9.5 8.3 0 15.4-.2 22.2-5.5 4.9-4.9 6.5-9.3 9-16h33a60 60 0 0 1-21 40 73 73 0 0 1-54.5 10.6Q35 739.5 24 731l-2-1.3C9.6 720 2.9 703.5.6 688.3c-2.7-21 .2-42.8 13.1-60.1a60 60 0 0 1 49.7-22.5" fill="#000000"/><path d="M106 356c2.4.3 2.4.3 5 1a45 45 0 0 1 5.2 9.3 77 77 0 0 1 5.9 55c-3.5 8.6-8.2 19.1-16.1 24.7-2.5.2-2.5.2-5-1a45 45 0 0 1-4-7l-1-2c-3.7-8.1-6.4-16.5-9-25l-7 2 1.9 2.8C92.6 432 92.6 432 92 443l-8 2 2 .6a79 79 0 0 1 40.9 31 15 15 0 0 1 1.1 8.4l-4.1 1.4-2.3.8A67 67 0 0 1 73 482a58 58 0 0 1-13.5-10.3l-5.8-5.8C39.7 452 39.7 452 37 448c.3-2.8.3-2.8 1-5q7.1-1.2 14.4-1.6h2.2l5.4-.4-2.3-.8c-7.3-2.9-13-6-18.7-11.2l-2.6-2.3A95 95 0 0 1 11 390v-6a87 87 0 0 1 62 22l1.4-3.4C76 399 76 399 78 397c3 0 6 .6 9 1l.5-1.6c4.7-14.3 10-28 18.5-40.4" fill="#050505"/><path d="M136 610h31l1 50 5-5c7-6.5 13.6-8.6 22.9-8.4h2.4c8 .2 15.3 2.1 21.3 7.7 9.4 11.3 9.7 23.9 9.6 37.9v15.6l-.1 13.6-.1 20.6h-32v-12.7l-.4-32.8v-3.8c0-8.7 0-8.7-4.6-15.7-4.7-3.1-9.5-2.6-15-2-3.7 1.1-3.7 1.1-6 4a55 55 0 0 0-3.5 22.6v3.5l-.3 18.5-.2 18.4h-31z" fill="#000000"/><path d="M505.3 653a39 39 0 0 1 10.9 27.4v27.4l-.1 13.6-.1 20.6h-32v-12.7l-.4-32.8v-3.8c0-8.7 0-8.7-4.6-15.7-4.7-3.1-9.5-2.6-15-2-3.7 1.1-3.7 1.1-6 4a55 55 0 0 0-3.5 22.6v3.5l-.3 18.5-.2 18.4h-31v-94h31l1 12 1.9-2.6c11.9-14.4 33.8-13.6 48.4-4.3" fill="#000000"/><path d="M607 654a50 50 0 0 1 19.6 28.2c2.2 15 1 30.4-8.1 43A48 48 0 0 1 589 743c-17.1 1.2-32.5.7-46-11a48 48 0 0 1-15.2-33.3 53 53 0 0 1 12.8-39A57 57 0 0 1 607 654m-43.4 24.8c-4.6 7.6-4.9 17-3 25.7 1.8 5.4 4.4 9.2 9 12.3 5.5 2 10.2 2 15.6 0q7.4-4.6 9.8-12.8a36 36 0 0 0-2.8-24.4c-3.5-4.1-6.7-7.1-12.2-7.9-6.8-.3-12 1.5-16.4 7" fill="#000000"/><path d="M391 654a50 50 0 0 1 19.6 28.2c2.2 15 1 30.4-8.1 43A48 48 0 0 1 373 743c-17.1 1.2-32.5.7-46-11a48 48 0 0 1-15.2-33.3 53 53 0 0 1 12.8-39A57 57 0 0 1 391 654m-43.4 24.8c-4.6 7.6-4.9 17-3 25.7 1.8 5.4 4.4 9.2 9 12.3 5.5 2 10.2 2 15.6 0q7.4-4.6 9.8-12.8a36 36 0 0 0-2.8-24.4c-3.5-4.1-6.7-7.1-12.2-7.9-6.8-.3-12 1.5-16.4 7" fill="#000000"/><path d="M678.5 646.6h3.2c12.4 0 23.8 3.1 33.1 11.6 5.5 6 7.8 12.8 8.2 20.8-1 1-1 1-3.7 1.1H712l-18-.1c-3-5.7-3-5.7-3-8a24 24 0 0 0-11-2.2h-3.2a12 12 0 0 0-6.8 2.2c-.8 3-.8 3-1 6 3 2.6 5.5 3.5 9.4 4.2l3.2.6 3.3.6c30 5.7 30 5.7 36.8 14.8 4 7 4.6 13.7 2.6 21.5-3.8 10.6-9.8 15-19.7 19.8a69 69 0 0 1-47 .8 40 40 0 0 1-22-21c-.6-2.3-.6-2.3-.6-8.3h31l3 6c3.8 3 6.8 3.4 11.6 3.3h3.3c3-.3 4.7-.6 7.1-2.3.8-3 .8-3 1-6a26 26 0 0 0-10.6-4.2l-3.2-.6-3.3-.6c-13.4-2.4-25.4-5-34.6-15.7-4.4-6.4-3.8-13.4-3.3-20.9a25 25 0 0 1 9.4-15l2.7-1.6 2.6-1.8a56 56 0 0 1 26.8-5" fill="#000000"/><path d="m162 506.3 2 1.7v2l3 1c3.3 4.1 4 5.5 4 11l-10 5h3.4c14 .5 26.4 2.4 38.8 9l2 1c3.8 2 6.5 4.2 8.8 8 0 2.7-.7 3.7-2.5 5.6C198.4 561 182 568.7 165 567a141 141 0 0 1-50-17c.6-4.5.6-4.5 2.4-6.5 8-5.2 16.8-8.8 25.6-12.5l-2.1.1c-23.7.7-44-10.4-61-26.2L78 503l-1.8-1.5C75 500 75 500 75 496l6.3-1.9 3.5-1c27.7-7.5 54-3.8 77.2 13.2" fill="#050505"/><path d="m710 166 5 1 2.4 10 .7 3c3.7 15.2 5.2 32-.1 47l-1 3a63 63 0 0 1-23 30c-3.3.7-3.3.7-6 1a87 87 0 0 1-8-42l-3 2-5 1 1 2a68 68 0 0 1 7 36l-1 1a59 59 0 0 1-33-14l-2.3-1.9C631 233.8 626.3 216.3 624 200v-11c16 1.4 29.9 12.2 41 23l1.4-3c2.6-3 2.6-3 4.7-3.5 4.8-.1 7.2.4 10.9 3.5l1-2.8c5.8-15.9 15.1-28.3 27-40.2" fill="#050505"/><path d="M726 241.3c2 .7 2 .7 3 2.7 1.8 24.5-1.6 49.1-17.6 68.7A65 65 0 0 1 687 329h-4c-5.5-16-2.7-31.1 2-47l-1 1h-9l.6 2a76 76 0 0 1 2.5 33l-.3 2.3c-.7 5.6-.7 5.6-1.8 6.7-8.5.8-15-5.1-21.2-10.3L652 314v-2l-3-1q-2.4-3-4.4-6.3l-1.2-2a54 54 0 0 1-8.5-28.6v-10.4q-.1-9 1.1-17.7c2.1-.7 2.1-.7 5-1a75 75 0 0 1 30 31l.8-2.3c1.8-4.2 1.8-4.2 4.2-5.7 4-.5 6.1-.7 9.4 1.8a14 14 0 0 1 2.6 6.2l1.4-2.2 1.9-3 1.8-3q2.6-4 5.9-7.8h2v-2c18.9-17.6 18.9-17.6 25-16.7" fill="#050505"/><path d="M385.2 134.8c8.9 7 16 15.5 17.8 27.2 1 12.4-2.1 23-9.5 33a44 44 0 0 1-30.6 13q-16 0-27.9-10.8c-9.3-10-11.6-20.4-11.3-33.6.5-11.1 6.3-19.2 14.3-26.6 13.6-11.2 32.4-10.4 47.2-2.2m-31 24.5A18 18 0 0 0 351 172c1.8 4.1 3.8 6.3 8 8 5 .7 8.7.8 13-1.9 3.5-3.7 3.3-6.7 3.2-11.6-.3-3.3-1-5-3.2-7.5-5.5-4-12.2-3.6-17.9.3" fill="#040404"/><path d="M245 648h30l1 11 2-3.2c2.6-4.3 6.4-6.2 11-7.8q4.8-.5 9.5-.2l8.5.2v25l-8.5.2c-6.7.3-12.7.6-17.5 5.8-4.7 7.2-4.2 15.5-4.3 23.7v3.4l-.4 18-.3 17.9h-31z" fill="#000000"/><path d="M611 543c2.4 2.6 3 3.4 3 7-21.7 11.5-46.5 21.3-71.2 14l-2.8-1-3-1a62 62 0 0 1-22-14c-.3-2.4-.3-2.4 0-5 22.6-26.2 70.9-16 96 0" fill="#050505"/><path d="M86 33c2.3.1 2.3.1 5 1 9.6 15.8 10.4 39.3 6.4 57A75 75 0 0 1 81 121l-1.6 2.1c-3.6 4.7-3.6 4.7-7.5 5.7-4-1-4.8-2.3-6.9-5.8a71 71 0 0 1-4-52 133 133 0 0 1 25-38" fill="#050505"/><path d="M40 97c5 .7 7 2.3 10.1 6.1a85 85 0 0 1 13.4 62.2A83 83 0 0 1 50 194c-5.9-.8-8.4-3.5-12-8a71 71 0 0 1-11.2-54.8q4.6-18 13.2-34.2" fill="#050505"/><path d="M270 559c-.1 7-3.2 10.2-8 15l-2.6 2.8c-15 14-32.6 17-52.4 16.5q-16.2-.7-32-4.3c.8-8.3 6.4-12.9 12.5-18.1 24.6-19 53.7-25 82.5-11.9" fill="#040404"/><path d="M540.6 571c12.2 9.4 12.2 9.4 13.4 18-24.5 5-52.8 9.3-75-4.8a89 89 0 0 1-20-19.2c-.2-3-.2-3 1-6 25.3-17.3 58.9-4.3 80.6 12" fill="#040505"/><path d="m686.6 96.9 2.4.1c11 22.4 19 46.2 11 71-3.6 9.3-8.6 20.1-17 26-2.6 0-2.6 0-5-1a68 68 0 0 1-14.3-43.8c1-11.2 8.7-51.6 23-52.3" fill="#050505"/><path d="M641.5 33c9.6 3.6 18 19.8 22.4 28.8A70 70 0 0 1 660 128c-5.4-.1-8.2-2.3-12-5.8A74 74 0 0 1 630 77l-.2-2.3c-.4-11.7.5-30.7 7.5-40.5C639 33 639 33 641.5 33" fill="#050505"/><path d="M729 316a54 54 0 0 1-2.7 19.5c-5.5 19.2-14.9 38-32.8 48.2L691 385l-2 1.2c-7 3.9-16 7-24 4.8-3.6-11 1-23 5.4-33.2 9.5-18.7 28.5-32 47.6-39.8l2.6-1.1c2.9-1 5.3-1 8.4-.9" fill="#050504"/><path d="M0 316c18.4 1 36 14.3 48.2 27.2A68 68 0 0 1 65 389l-1 2c-14 .8-27.3-5.3-38-14.1A84 84 0 0 1 0 327z" fill="#040404"/><path d="M186 0c.2 6.3-.3 11.6-2 17.7l-.7 2.3A77 77 0 0 1 167 50l-2 2.3c-8.6 9.2-19 15-31 18.7l-3 1h-9c-3.2-6.3-.4-17.5 1.6-24A71 71 0 0 1 160 7 53 53 0 0 1 186 0" fill="#050506"/><path d="M543 0c18.8 0 35.9 11.5 49 24a68 68 0 0 1 8.4 12.4c5.2 9.6 9.4 23 7.1 34L607 72c-14.5.6-28.7-7.1-39.3-16.4l-6.6-6.4A72 72 0 0 1 542.7 4z" fill="#050505"/><path d="M111 76.6c2.8.4 4.6.8 7 2.4 1.6 3.2 1 6.4 1 10l3.1-.6c29.3-5.7 29.3-5.7 35.9-2.4-.5 5-2.2 8.6-5 12.7l-1.2 1.8q-5.9 8.7-12.8 16.5l-1.7 2a57 57 0 0 1-42.4 18.3h-2c-4.7 0-8.5-.9-12.9-2.3.2-12.7 7.6-22.6 16.1-31.3q6-5.5 12.9-9.7l-2.5-2.6a11 11 0 0 1-3-6.5c.9-4.7 2.5-7.6 7.5-8.3" fill="#050505"/><path d="M620 77c2.9 1.5 2.9 1.5 5 4 .8 5 .8 5 0 8-2.5 3-2.5 3-5 5l8 6 3 2.3a51 51 0 0 1 17.9 29.5l.1 3.2a59 59 0 0 1-43.4-4.7C592.2 123 583.7 110.7 576 98l-1.2-1.9A16 16 0 0 1 572 85c12.9-.4 25.5 1.2 38 4l-.2-3.7c0-3.2 0-4.1 1.8-6.8 3.1-2 4.8-2 8.4-1.5" fill="#050505"/><path d="M165 450c11 .4 19.4 7.1 26.7 14.8a80 80 0 0 1 21.5 57.5c-.2 4-1 7-2.2 10.7a43 43 0 0 1-26-11v-2l-3-1-4.4-5.8-1.2-1.8a86 86 0 0 1-11.9-59.3z" fill="#050505"/><path d="M562 449.3c2 .7 2 .7 3 2.7 1 23.1-1.7 47.2-17.4 65.4-6.6 6.9-14.8 14.7-24.7 15.8l-4.9-.2a69 69 0 0 1 7.9-53.1c5.5-9.3 23-32.6 36.2-30.6" fill="#050505"/><path d="M129 406c6.7.8 10.6 5.2 15 10a74 74 0 0 1 17 52 75 75 0 0 1-8 27c-7.4-.7-11-4.8-16-10a64 64 0 0 1-15-37l-.2-2.4c-.3-7.1.8-13.9 2-20.9l.5-2.8c1-5.6 2.5-10.6 4.7-15.9" fill="#050505"/><path d="m598.8 406.2 2.2.8 2.4 9.4.7 2.7A77 77 0 0 1 599 475q-3.2 4.6-7 9l-1.3 1.7A29 29 0 0 1 580 495c-2.7-.4-2.7-.4-5-1-6.8-18.7-10.2-37-2.7-56.2 4.7-9.9 11.2-18.4 18.4-26.6l1.4-1.6c3.2-3.6 3.2-3.6 6.7-3.4" fill="#050505"/><path d="M636 302c11 3.7 17.7 15.3 23 25a120 120 0 0 1 6.3 15.5c3.7 17.3-.4 32.3-6.3 48.5-7.6-1-11.5-4-16.3-9.9a74 74 0 0 1-14.2-55.3c3.2-19.5 3.2-19.5 7.5-23.8" fill="#050505"/><path d="M124 136c.6 15.5-8.2 31.2-18.3 42.4A55 55 0 0 1 72 196H58c-2.6-7.7 1.3-17 4.5-24 9.5-18.2 24.7-28 43.6-34.7 5.9-1.8 11.8-1.5 17.9-1.3" fill="#050505"/><path d="m91.8 302.8 2.2.2c7.5 21 11.1 43 1.6 64.2A67 67 0 0 1 75 391c-2.5.3-2.5.3-5-1q-2.7-4.2-4-9l-1-2.5a69 69 0 0 1 5-51A131 131 0 0 1 85 307l2-2.4c2-1.6 2-1.6 4.8-1.9" fill="#050505"/><path d="M605 136a71 71 0 0 1 48.9 17.9A56 56 0 0 1 671 196a65 65 0 0 1-45.3-15.1 72 72 0 0 1-20.8-42.8z" fill="#050505"/><path d="M287 565q5.5 3.5 10 8a88 88 0 0 1-2.8 19.9l-.5 2.2A19 19 0 0 1 288 606c-3.1 1.3-3.1 1.3-6.8 2.1l-2 .5-9.9 2.3c-10.1 2.4-19.9 2.4-30.3 2.1 1.1-11.3 9-19.5 16-28l1.3-1.8c6-7.7 20.6-20.2 30.7-18.2" fill="#040404"/><path d="M211 482a62 62 0 0 1 38 16c1 2 1 2 1 4-1 2-1 2-2.4 4-3.4 5-4.6 10-3.6 16q1.7 3.7 3.8 7c1.2 2 1.2 2 2.2 5l4 2 4.8 4.2q5.8 5.4 11.8 10.4c1.4 1.4 1.4 1.4 1.4 3.4-14.3 1-26.4-5-37.1-14.2a78 78 0 0 1-24.1-50.3q0-3.7.2-7.5" fill="#050505"/><path d="M518 482a72 72 0 0 1-17.1 50l-1.9 2-2.2 2.5A56 56 0 0 1 459 555l-1-3c4.5-6.8 11.5-11.6 18-16.4 5.4-4.3 8-8.8 8.9-15.6.3-5.2-.2-9.9-3.6-14-1.3-2-1.3-2-1.3-4.8 1.4-4.3 4-6 7.7-8.2l2-1.3c8.6-5.3 17.9-11 28.3-9.7" fill="#050505"/><path d="M446.9 565.4c17.9 5.4 31 23 40.5 38.2 1.7 3.5 2 5.6 1.6 9.4a115 115 0 0 1-27.4-1.8l-2.7-.5-10.6-2.3c-4.3-1-6.7-1.8-9.8-5a74 74 0 0 1-5-14.7A36 36 0 0 1 432 575c1.4-2.4 1.4-2.4 3.3-4.3l1.9-2c3.3-3 5.2-4.2 9.7-3.3" fill="#030303"/><path d="M372 213a75 75 0 0 1 14.1 14.6q6.8 9 13.5 18.1A659 659 0 0 0 419 271l1.3 1.7c2.7 3.7 2.7 3.7 2.6 6.5a16 16 0 0 1-4 5l-1.7 1.5c-3 1.8-5.8 2-9.2 2.3l-1.1-2.2-18.2-35-1.2-2.2-6-11.3-1.2-2.3-2.3-4.3c-6.5-12.1-6.5-12.1-6-17.7" fill="#000000"/><path d="M306 317c5.7 1.9 9.3 5.7 12 11 .6 6 .5 11-3 16-4.3 4.2-8 6.7-14.1 7.1-5.8-.2-9.2-2.2-13.3-6.2-3.5-4.2-4-8.7-3.8-14a16 16 0 0 1 6.3-10.7c5.2-4 9.5-3.7 15.9-3.2" fill="#060606"/><path d="M80.2 397q2.3.2 4.7.7c2.3.5 2.3.5 5.1-.7v14c-4.2 1-7.7 1.6-12 1-2.5-1.6-2.5-1.6-4-4-.6-3.7-.2-5.5 1.4-9 2.6-2 2.6-2 4.8-2" fill="#191919"/><path d="M50 206c2.3-.4 2.3-.4 5-.4l2.6-.1c2.4.5 2.4.5 4.2 2.3C63 210 63 210 63 214l3-1-1 4h-4l-1 3c-2.8 1.4-4.9 1.3-8 1a12 12 0 0 1-4-5c-.4-6.5-.4-6.5 2-10" fill="#121212"/><path d="M620 77c2.9 1.5 2.9 1.5 5 4 1 4 .6 7-1.5 10.6-3.2 1.8-5.1 1.6-8.7 1-1.8-.6-1.8-.6-3.8-1.7a15 15 0 0 1-1-9.9c2.7-4.2 5.2-4.8 10-4" fill="#131313"/><path d="M651 397c2.2 1.6 2.9 2.5 3.4 5.2v4.6c-.5 2.7-1.2 3.6-3.4 5.2-2.7.4-5.2.1-8 0l-1-3-3 1v-12l2 1c3.7-2.5 5.6-2.4 10-2" fill="#181817"/><path d="M111 76.6c2.8.4 4.6.8 7 2.4 1.6 3.2 1.4 6.5 1 10-1.6 3-3.1 3-6.4 4-3.6 0-3.6 0-6.5-2-2.1-3-2.1-3-2.7-6 1-4.8 2.6-7.7 7.6-8.4" fill="#131313"/><path d="M51.8 267.6c2.7.5 3.6 1.2 5.2 3.4.8 6.8.8 6.8-1.5 10.5-3.8 2.3-6.1 2-10.5 1.5-2-1.6-2-1.6-3-4-.4-3.6-.4-6 1-9.4 2.8-2.2 5.3-2 8.8-2" fill="#141413"/><path d="M683 268a9 9 0 0 1 4 4c.4 3.6.4 6-1 9.4-2.9 2.3-5.3 2-9 2-2-.4-2-.4-4-2.4a29 29 0 0 1-1-9c2.7-4.6 6-4.7 11-4" fill="#121211"/><path d="M618 458c2.2.3 2.2.3 4 1q-6.1 7.4-13 14c-.7-1.7-.7-1.7-1-4 1.3-2 1.3-2 3.3-4l1.8-2.1 1.9-1.9 1.5-1.8z" fill="#242526"/><path d="M426 295h3c1.1 4.8 1.1 4.8 0 7h-7v-6c1-1 1-1 4-1" fill="#181917"/><path d="m675 206-2.4 1.4c-3.6 3.6-3.5 6.7-3.6 11.6l-3-2c-.4-3.6-.4-6.1 1.1-9.4 2.7-2.2 4.6-1.9 7.9-1.6" fill="#434241"/><path d="m72 204 4 1-6 7-4-1z" fill="#252626"/><path d="M437 316h5v6h-5z" fill="#2B2B2A"/><path d="m418 287 5 1v4h-6z" fill="#272724"/><path d="M442 324h4v5l-5-1z" fill="#2E2E2D"/></svg>